# TRUNC Equatorial Unit Cell D=88mm
# vertices=1470 faces=2720
mtllib trunc_materials.mtl
o trunc_model
v -7.0000 0.0000 42.0000
v -6.5778 -2.3941 42.0000
v -5.3623 -4.4995 42.0000
v -3.5000 -6.0622 42.0000
v -1.2155 -6.8937 42.0000
v 1.2155 -6.8937 42.0000
v 3.5000 -6.0622 42.0000
v 5.3623 -4.4995 42.0000
v 6.5778 -2.3941 42.0000
v 7.0000 -0.0000 42.0000
v 6.5778 2.3941 42.0000
v 5.3623 4.4995 42.0000
v 3.5000 6.0622 42.0000
v 1.2155 6.8937 42.0000
v -1.2155 6.8937 42.0000
v -3.5000 6.0622 42.0000
v -5.3623 4.4995 42.0000
v -6.5778 2.3941 42.0000
v -7.0000 0.0000 46.0000
v -6.5778 -2.3941 46.0000
v -5.3623 -4.4995 46.0000
v -3.5000 -6.0622 46.0000
v -1.2155 -6.8937 46.0000
v 1.2155 -6.8937 46.0000
v 3.5000 -6.0622 46.0000
v 5.3623 -4.4995 46.0000
v 6.5778 -2.3941 46.0000
v 7.0000 -0.0000 46.0000
v 6.5778 2.3941 46.0000
v 5.3623 4.4995 46.0000
v 3.5000 6.0622 46.0000
v 1.2155 6.8937 46.0000
v -1.2155 6.8937 46.0000
v -3.5000 6.0622 46.0000
v -5.3623 4.4995 46.0000
v -6.5778 2.3941 46.0000
v 0.0000 0.0000 42.0000
v 0.0000 0.0000 46.0000
v -7.0000 0.0000 -46.0000
v -6.5778 -2.3941 -46.0000
v -5.3623 -4.4995 -46.0000
v -3.5000 -6.0622 -46.0000
v -1.2155 -6.8937 -46.0000
v 1.2155 -6.8937 -46.0000
v 3.5000 -6.0622 -46.0000
v 5.3623 -4.4995 -46.0000
v 6.5778 -2.3941 -46.0000
v 7.0000 -0.0000 -46.0000
v 6.5778 2.3941 -46.0000
v 5.3623 4.4995 -46.0000
v 3.5000 6.0622 -46.0000
v 1.2155 6.8937 -46.0000
v -1.2155 6.8937 -46.0000
v -3.5000 6.0622 -46.0000
v -5.3623 4.4995 -46.0000
v -6.5778 2.3941 -46.0000
v -7.0000 0.0000 -42.0000
v -6.5778 -2.3941 -42.0000
v -5.3623 -4.4995 -42.0000
v -3.5000 -6.0622 -42.0000
v -1.2155 -6.8937 -42.0000
v 1.2155 -6.8937 -42.0000
v 3.5000 -6.0622 -42.0000
v 5.3623 -4.4995 -42.0000
v 6.5778 -2.3941 -42.0000
v 7.0000 -0.0000 -42.0000
v 6.5778 2.3941 -42.0000
v 5.3623 4.4995 -42.0000
v 3.5000 6.0622 -42.0000
v 1.2155 6.8937 -42.0000
v -1.2155 6.8937 -42.0000
v -3.5000 6.0622 -42.0000
v -5.3623 4.4995 -42.0000
v -6.5778 2.3941 -42.0000
v 0.0000 0.0000 -46.0000
v 0.0000 0.0000 -42.0000
v -2.0000 0.0000 -50.0000
v -1.7321 -1.0000 -50.0000
v -1.0000 -1.7321 -50.0000
v -0.0000 -2.0000 -50.0000
v 1.0000 -1.7321 -50.0000
v 1.7321 -1.0000 -50.0000
v 2.0000 -0.0000 -50.0000
v 1.7321 1.0000 -50.0000
v 1.0000 1.7321 -50.0000
v 0.0000 2.0000 -50.0000
v -1.0000 1.7321 -50.0000
v -1.7321 1.0000 -50.0000
v -2.0000 0.0000 50.0000
v -1.7321 -1.0000 50.0000
v -1.0000 -1.7321 50.0000
v -0.0000 -2.0000 50.0000
v 1.0000 -1.7321 50.0000
v 1.7321 -1.0000 50.0000
v 2.0000 -0.0000 50.0000
v 1.7321 1.0000 50.0000
v 1.0000 1.7321 50.0000
v 0.0000 2.0000 50.0000
v -1.0000 1.7321 50.0000
v -1.7321 1.0000 50.0000
v 0.0000 0.0000 -50.0000
v 0.0000 0.0000 50.0000
v 42.9000 0.0000 4.2000
v 42.9000 -1.6073 3.8803
v 42.9000 -2.9698 2.9698
v 42.9000 -3.8803 1.6073
v 42.9000 -4.2000 0.0000
v 42.9000 -3.8803 -1.6073
v 42.9000 -2.9698 -2.9698
v 42.9000 -1.6073 -3.8803
v 42.9000 -0.0000 -4.2000
v 42.9000 1.6073 -3.8803
v 42.9000 2.9698 -2.9698
v 42.9000 3.8803 -1.6073
v 42.9000 4.2000 -0.0000
v 42.9000 3.8803 1.6073
v 42.9000 2.9698 2.9698
v 42.9000 1.6073 3.8803
v 45.1000 0.0000 4.2000
v 45.1000 -1.6073 3.8803
v 45.1000 -2.9698 2.9698
v 45.1000 -3.8803 1.6073
v 45.1000 -4.2000 0.0000
v 45.1000 -3.8803 -1.6073
v 45.1000 -2.9698 -2.9698
v 45.1000 -1.6073 -3.8803
v 45.1000 -0.0000 -4.2000
v 45.1000 1.6073 -3.8803
v 45.1000 2.9698 -2.9698
v 45.1000 3.8803 -1.6073
v 45.1000 4.2000 -0.0000
v 45.1000 3.8803 1.6073
v 45.1000 2.9698 2.9698
v 45.1000 1.6073 3.8803
v 42.9000 0.0000 0.0000
v 45.1000 0.0000 0.0000
v 41.7000 0.0000 1.1000
v 41.7000 -0.5500 0.9526
v 41.7000 -0.9526 0.5500
v 41.7000 -1.1000 0.0000
v 41.7000 -0.9526 -0.5500
v 41.7000 -0.5500 -0.9526
v 41.7000 -0.0000 -1.1000
v 41.7000 0.5500 -0.9526
v 41.7000 0.9526 -0.5500
v 41.7000 1.1000 -0.0000
v 41.7000 0.9526 0.5500
v 41.7000 0.5500 0.9526
v 46.3000 0.0000 1.1000
v 46.3000 -0.5500 0.9526
v 46.3000 -0.9526 0.5500
v 46.3000 -1.1000 0.0000
v 46.3000 -0.9526 -0.5500
v 46.3000 -0.5500 -0.9526
v 46.3000 -0.0000 -1.1000
v 46.3000 0.5500 -0.9526
v 46.3000 0.9526 -0.5500
v 46.3000 1.1000 -0.0000
v 46.3000 0.9526 0.5500
v 46.3000 0.5500 0.9526
v 41.7000 0.0000 0.0000
v 46.3000 0.0000 0.0000
v 30.3349 30.3349 4.2000
v 31.4714 29.1984 3.8803
v 32.4349 28.2349 2.9698
v 33.0787 27.5911 1.6073
v 33.3047 27.3650 0.0000
v 33.0787 27.5911 -1.6073
v 32.4349 28.2349 -2.9698
v 31.4714 29.1984 -3.8803
v 30.3349 30.3349 -4.2000
v 29.1984 31.4714 -3.8803
v 28.2349 32.4349 -2.9698
v 27.5911 33.0787 -1.6073
v 27.3650 33.3047 -0.0000
v 27.5911 33.0787 1.6073
v 28.2349 32.4349 2.9698
v 29.1984 31.4714 3.8803
v 31.8905 31.8905 4.2000
v 33.0270 30.7540 3.8803
v 33.9905 29.7905 2.9698
v 34.6343 29.1467 1.6073
v 34.8604 28.9207 0.0000
v 34.6343 29.1467 -1.6073
v 33.9905 29.7905 -2.9698
v 33.0270 30.7540 -3.8803
v 31.8905 31.8905 -4.2000
v 30.7540 33.0270 -3.8803
v 29.7905 33.9905 -2.9698
v 29.1467 34.6343 -1.6073
v 28.9207 34.8604 -0.0000
v 29.1467 34.6343 1.6073
v 29.7905 33.9905 2.9698
v 30.7540 33.0270 3.8803
v 30.3349 30.3349 0.0000
v 31.8905 31.8905 0.0000
v 29.4864 29.4864 1.1000
v 29.8753 29.0974 0.9526
v 30.1600 28.8127 0.5500
v 30.2642 28.7085 0.0000
v 30.1600 28.8127 -0.5500
v 29.8753 29.0974 -0.9526
v 29.4864 29.4864 -1.1000
v 29.0974 29.8753 -0.9526
v 28.8127 30.1600 -0.5500
v 28.7085 30.2642 -0.0000
v 28.8127 30.1600 0.5500
v 29.0974 29.8753 0.9526
v 32.7390 32.7390 1.1000
v 33.1280 32.3501 0.9526
v 33.4127 32.0654 0.5500
v 33.5169 31.9612 0.0000
v 33.4127 32.0654 -0.5500
v 33.1280 32.3501 -0.9526
v 32.7390 32.7390 -1.1000
v 32.3501 33.1280 -0.9526
v 32.0654 33.4127 -0.5500
v 31.9612 33.5169 -0.0000
v 32.0654 33.4127 0.5500
v 32.3501 33.1280 0.9526
v 29.4864 29.4864 0.0000
v 32.7390 32.7390 0.0000
v 0.0000 42.9000 -4.2000
v -1.6073 42.9000 -3.8803
v -2.9698 42.9000 -2.9698
v -3.8803 42.9000 -1.6073
v -4.2000 42.9000 -0.0000
v -3.8803 42.9000 1.6073
v -2.9698 42.9000 2.9698
v -1.6073 42.9000 3.8803
v 0.0000 42.9000 4.2000
v 1.6073 42.9000 3.8803
v 2.9698 42.9000 2.9698
v 3.8803 42.9000 1.6073
v 4.2000 42.9000 0.0000
v 3.8803 42.9000 -1.6073
v 2.9698 42.9000 -2.9698
v 1.6073 42.9000 -3.8803
v 0.0000 45.1000 -4.2000
v -1.6073 45.1000 -3.8803
v -2.9698 45.1000 -2.9698
v -3.8803 45.1000 -1.6073
v -4.2000 45.1000 -0.0000
v -3.8803 45.1000 1.6073
v -2.9698 45.1000 2.9698
v -1.6073 45.1000 3.8803
v 0.0000 45.1000 4.2000
v 1.6073 45.1000 3.8803
v 2.9698 45.1000 2.9698
v 3.8803 45.1000 1.6073
v 4.2000 45.1000 0.0000
v 3.8803 45.1000 -1.6073
v 2.9698 45.1000 -2.9698
v 1.6073 45.1000 -3.8803
v 0.0000 42.9000 0.0000
v 0.0000 45.1000 0.0000
v 0.0000 41.7000 -1.1000
v -0.5500 41.7000 -0.9526
v -0.9526 41.7000 -0.5500
v -1.1000 41.7000 -0.0000
v -0.9526 41.7000 0.5500
v -0.5500 41.7000 0.9526
v 0.0000 41.7000 1.1000
v 0.5500 41.7000 0.9526
v 0.9526 41.7000 0.5500
v 1.1000 41.7000 0.0000
v 0.9526 41.7000 -0.5500
v 0.5500 41.7000 -0.9526
v 0.0000 46.3000 -1.1000
v -0.5500 46.3000 -0.9526
v -0.9526 46.3000 -0.5500
v -1.1000 46.3000 -0.0000
v -0.9526 46.3000 0.5500
v -0.5500 46.3000 0.9526
v 0.0000 46.3000 1.1000
v 0.5500 46.3000 0.9526
v 0.9526 46.3000 0.5500
v 1.1000 46.3000 0.0000
v 0.9526 46.3000 -0.5500
v 0.5500 46.3000 -0.9526
v 0.0000 41.7000 0.0000
v 0.0000 46.3000 0.0000
v -30.3349 30.3349 -4.2000
v -31.4714 29.1984 -3.8803
v -32.4349 28.2349 -2.9698
v -33.0787 27.5911 -1.6073
v -33.3047 27.3650 -0.0000
v -33.0787 27.5911 1.6073
v -32.4349 28.2349 2.9698
v -31.4714 29.1984 3.8803
v -30.3349 30.3349 4.2000
v -29.1984 31.4714 3.8803
v -28.2349 32.4349 2.9698
v -27.5911 33.0787 1.6073
v -27.3650 33.3047 0.0000
v -27.5911 33.0787 -1.6073
v -28.2349 32.4349 -2.9698
v -29.1984 31.4714 -3.8803
v -31.8905 31.8905 -4.2000
v -33.0270 30.7540 -3.8803
v -33.9905 29.7905 -2.9698
v -34.6343 29.1467 -1.6073
v -34.8604 28.9207 -0.0000
v -34.6343 29.1467 1.6073
v -33.9905 29.7905 2.9698
v -33.0270 30.7540 3.8803
v -31.8905 31.8905 4.2000
v -30.7540 33.0270 3.8803
v -29.7905 33.9905 2.9698
v -29.1467 34.6343 1.6073
v -28.9207 34.8604 0.0000
v -29.1467 34.6343 -1.6073
v -29.7905 33.9905 -2.9698
v -30.7540 33.0270 -3.8803
v -30.3349 30.3349 0.0000
v -31.8905 31.8905 0.0000
v -29.4864 29.4864 -1.1000
v -29.8753 29.0974 -0.9526
v -30.1600 28.8127 -0.5500
v -30.2642 28.7085 -0.0000
v -30.1600 28.8127 0.5500
v -29.8753 29.0974 0.9526
v -29.4864 29.4864 1.1000
v -29.0974 29.8753 0.9526
v -28.8127 30.1600 0.5500
v -28.7085 30.2642 0.0000
v -28.8127 30.1600 -0.5500
v -29.0974 29.8753 -0.9526
v -32.7390 32.7390 -1.1000
v -33.1280 32.3501 -0.9526
v -33.4127 32.0654 -0.5500
v -33.5169 31.9612 -0.0000
v -33.4127 32.0654 0.5500
v -33.1280 32.3501 0.9526
v -32.7390 32.7390 1.1000
v -32.3501 33.1280 0.9526
v -32.0654 33.4127 0.5500
v -31.9612 33.5169 0.0000
v -32.0654 33.4127 -0.5500
v -32.3501 33.1280 -0.9526
v -29.4864 29.4864 0.0000
v -32.7390 32.7390 0.0000
v -42.9000 0.0000 -4.2000
v -42.9000 -1.6073 -3.8803
v -42.9000 -2.9698 -2.9698
v -42.9000 -3.8803 -1.6073
v -42.9000 -4.2000 -0.0000
v -42.9000 -3.8803 1.6073
v -42.9000 -2.9698 2.9698
v -42.9000 -1.6073 3.8803
v -42.9000 0.0000 4.2000
v -42.9000 1.6073 3.8803
v -42.9000 2.9698 2.9698
v -42.9000 3.8803 1.6073
v -42.9000 4.2000 0.0000
v -42.9000 3.8803 -1.6073
v -42.9000 2.9698 -2.9698
v -42.9000 1.6073 -3.8803
v -45.1000 0.0000 -4.2000
v -45.1000 -1.6073 -3.8803
v -45.1000 -2.9698 -2.9698
v -45.1000 -3.8803 -1.6073
v -45.1000 -4.2000 -0.0000
v -45.1000 -3.8803 1.6073
v -45.1000 -2.9698 2.9698
v -45.1000 -1.6073 3.8803
v -45.1000 0.0000 4.2000
v -45.1000 1.6073 3.8803
v -45.1000 2.9698 2.9698
v -45.1000 3.8803 1.6073
v -45.1000 4.2000 0.0000
v -45.1000 3.8803 -1.6073
v -45.1000 2.9698 -2.9698
v -45.1000 1.6073 -3.8803
v -42.9000 0.0000 0.0000
v -45.1000 0.0000 0.0000
v -41.7000 0.0000 -1.1000
v -41.7000 -0.5500 -0.9526
v -41.7000 -0.9526 -0.5500
v -41.7000 -1.1000 -0.0000
v -41.7000 -0.9526 0.5500
v -41.7000 -0.5500 0.9526
v -41.7000 0.0000 1.1000
v -41.7000 0.5500 0.9526
v -41.7000 0.9526 0.5500
v -41.7000 1.1000 0.0000
v -41.7000 0.9526 -0.5500
v -41.7000 0.5500 -0.9526
v -46.3000 0.0000 -1.1000
v -46.3000 -0.5500 -0.9526
v -46.3000 -0.9526 -0.5500
v -46.3000 -1.1000 -0.0000
v -46.3000 -0.9526 0.5500
v -46.3000 -0.5500 0.9526
v -46.3000 0.0000 1.1000
v -46.3000 0.5500 0.9526
v -46.3000 0.9526 0.5500
v -46.3000 1.1000 0.0000
v -46.3000 0.9526 -0.5500
v -46.3000 0.5500 -0.9526
v -41.7000 0.0000 0.0000
v -46.3000 0.0000 0.0000
v -30.3349 -30.3349 -4.2000
v -29.1984 -31.4714 -3.8803
v -28.2349 -32.4349 -2.9698
v -27.5911 -33.0787 -1.6073
v -27.3650 -33.3047 -0.0000
v -27.5911 -33.0787 1.6073
v -28.2349 -32.4349 2.9698
v -29.1984 -31.4714 3.8803
v -30.3349 -30.3349 4.2000
v -31.4714 -29.1984 3.8803
v -32.4349 -28.2349 2.9698
v -33.0787 -27.5911 1.6073
v -33.3047 -27.3650 0.0000
v -33.0787 -27.5911 -1.6073
v -32.4349 -28.2349 -2.9698
v -31.4714 -29.1984 -3.8803
v -31.8905 -31.8905 -4.2000
v -30.7540 -33.0270 -3.8803
v -29.7905 -33.9905 -2.9698
v -29.1467 -34.6343 -1.6073
v -28.9207 -34.8604 -0.0000
v -29.1467 -34.6343 1.6073
v -29.7905 -33.9905 2.9698
v -30.7540 -33.0270 3.8803
v -31.8905 -31.8905 4.2000
v -33.0270 -30.7540 3.8803
v -33.9905 -29.7905 2.9698
v -34.6343 -29.1467 1.6073
v -34.8604 -28.9207 0.0000
v -34.6343 -29.1467 -1.6073
v -33.9905 -29.7905 -2.9698
v -33.0270 -30.7540 -3.8803
v -30.3349 -30.3349 0.0000
v -31.8905 -31.8905 0.0000
v -29.4864 -29.4864 -1.1000
v -29.0974 -29.8753 -0.9526
v -28.8127 -30.1600 -0.5500
v -28.7085 -30.2642 -0.0000
v -28.8127 -30.1600 0.5500
v -29.0974 -29.8753 0.9526
v -29.4864 -29.4864 1.1000
v -29.8753 -29.0974 0.9526
v -30.1600 -28.8127 0.5500
v -30.2642 -28.7085 0.0000
v -30.1600 -28.8127 -0.5500
v -29.8753 -29.0974 -0.9526
v -32.7390 -32.7390 -1.1000
v -32.3501 -33.1280 -0.9526
v -32.0654 -33.4127 -0.5500
v -31.9612 -33.5169 -0.0000
v -32.0654 -33.4127 0.5500
v -32.3501 -33.1280 0.9526
v -32.7390 -32.7390 1.1000
v -33.1280 -32.3501 0.9526
v -33.4127 -32.0654 0.5500
v -33.5169 -31.9612 0.0000
v -33.4127 -32.0654 -0.5500
v -33.1280 -32.3501 -0.9526
v -29.4864 -29.4864 0.0000
v -32.7390 -32.7390 0.0000
v -0.0000 -42.9000 4.2000
v -1.6073 -42.9000 3.8803
v -2.9698 -42.9000 2.9698
v -3.8803 -42.9000 1.6073
v -4.2000 -42.9000 0.0000
v -3.8803 -42.9000 -1.6073
v -2.9698 -42.9000 -2.9698
v -1.6073 -42.9000 -3.8803
v -0.0000 -42.9000 -4.2000
v 1.6073 -42.9000 -3.8803
v 2.9698 -42.9000 -2.9698
v 3.8803 -42.9000 -1.6073
v 4.2000 -42.9000 -0.0000
v 3.8803 -42.9000 1.6073
v 2.9698 -42.9000 2.9698
v 1.6073 -42.9000 3.8803
v -0.0000 -45.1000 4.2000
v -1.6073 -45.1000 3.8803
v -2.9698 -45.1000 2.9698
v -3.8803 -45.1000 1.6073
v -4.2000 -45.1000 0.0000
v -3.8803 -45.1000 -1.6073
v -2.9698 -45.1000 -2.9698
v -1.6073 -45.1000 -3.8803
v -0.0000 -45.1000 -4.2000
v 1.6073 -45.1000 -3.8803
v 2.9698 -45.1000 -2.9698
v 3.8803 -45.1000 -1.6073
v 4.2000 -45.1000 -0.0000
v 3.8803 -45.1000 1.6073
v 2.9698 -45.1000 2.9698
v 1.6073 -45.1000 3.8803
v -0.0000 -42.9000 0.0000
v -0.0000 -45.1000 0.0000
v -0.0000 -41.7000 1.1000
v -0.5500 -41.7000 0.9526
v -0.9526 -41.7000 0.5500
v -1.1000 -41.7000 0.0000
v -0.9526 -41.7000 -0.5500
v -0.5500 -41.7000 -0.9526
v -0.0000 -41.7000 -1.1000
v 0.5500 -41.7000 -0.9526
v 0.9526 -41.7000 -0.5500
v 1.1000 -41.7000 -0.0000
v 0.9526 -41.7000 0.5500
v 0.5500 -41.7000 0.9526
v -0.0000 -46.3000 1.1000
v -0.5500 -46.3000 0.9526
v -0.9526 -46.3000 0.5500
v -1.1000 -46.3000 0.0000
v -0.9526 -46.3000 -0.5500
v -0.5500 -46.3000 -0.9526
v -0.0000 -46.3000 -1.1000
v 0.5500 -46.3000 -0.9526
v 0.9526 -46.3000 -0.5500
v 1.1000 -46.3000 -0.0000
v 0.9526 -46.3000 0.5500
v 0.5500 -46.3000 0.9526
v -0.0000 -41.7000 0.0000
v -0.0000 -46.3000 0.0000
v 30.3349 -30.3349 4.2000
v 29.1984 -31.4714 3.8803
v 28.2349 -32.4349 2.9698
v 27.5911 -33.0787 1.6073
v 27.3650 -33.3047 0.0000
v 27.5911 -33.0787 -1.6073
v 28.2349 -32.4349 -2.9698
v 29.1984 -31.4714 -3.8803
v 30.3349 -30.3349 -4.2000
v 31.4714 -29.1984 -3.8803
v 32.4349 -28.2349 -2.9698
v 33.0787 -27.5911 -1.6073
v 33.3047 -27.3650 -0.0000
v 33.0787 -27.5911 1.6073
v 32.4349 -28.2349 2.9698
v 31.4714 -29.1984 3.8803
v 31.8905 -31.8905 4.2000
v 30.7540 -33.0270 3.8803
v 29.7905 -33.9905 2.9698
v 29.1467 -34.6343 1.6073
v 28.9207 -34.8604 0.0000
v 29.1467 -34.6343 -1.6073
v 29.7905 -33.9905 -2.9698
v 30.7540 -33.0270 -3.8803
v 31.8905 -31.8905 -4.2000
v 33.0270 -30.7540 -3.8803
v 33.9905 -29.7905 -2.9698
v 34.6343 -29.1467 -1.6073
v 34.8604 -28.9207 -0.0000
v 34.6343 -29.1467 1.6073
v 33.9905 -29.7905 2.9698
v 33.0270 -30.7540 3.8803
v 30.3349 -30.3349 0.0000
v 31.8905 -31.8905 0.0000
v 29.4864 -29.4864 1.1000
v 29.0974 -29.8753 0.9526
v 28.8127 -30.1600 0.5500
v 28.7085 -30.2642 0.0000
v 28.8127 -30.1600 -0.5500
v 29.0974 -29.8753 -0.9526
v 29.4864 -29.4864 -1.1000
v 29.8753 -29.0974 -0.9526
v 30.1600 -28.8127 -0.5500
v 30.2642 -28.7085 -0.0000
v 30.1600 -28.8127 0.5500
v 29.8753 -29.0974 0.9526
v 32.7390 -32.7390 1.1000
v 32.3501 -33.1280 0.9526
v 32.0654 -33.4127 0.5500
v 31.9612 -33.5169 0.0000
v 32.0654 -33.4127 -0.5500
v 32.3501 -33.1280 -0.9526
v 32.7390 -32.7390 -1.1000
v 33.1280 -32.3501 -0.9526
v 33.4127 -32.0654 -0.5500
v 33.5169 -31.9612 -0.0000
v 33.4127 -32.0654 0.5500
v 33.1280 -32.3501 0.9526
v 29.4864 -29.4864 0.0000
v 32.7390 -32.7390 0.0000
v -5.5000 0.0000 42.7500
v -5.0813 -2.1048 42.7500
v -3.8891 -3.8891 42.7500
v -2.1048 -5.0813 42.7500
v -0.0000 -5.5000 42.7500
v 2.1048 -5.0813 42.7500
v 3.8891 -3.8891 42.7500
v 5.0813 -2.1048 42.7500
v 5.5000 -0.0000 42.7500
v 5.0813 2.1048 42.7500
v 3.8891 3.8891 42.7500
v 2.1048 5.0813 42.7500
v 0.0000 5.5000 42.7500
v -2.1048 5.0813 42.7500
v -3.8891 3.8891 42.7500
v -5.0813 2.1048 42.7500
v -5.5000 0.0000 45.2500
v -5.0813 -2.1048 45.2500
v -3.8891 -3.8891 45.2500
v -2.1048 -5.0813 45.2500
v -0.0000 -5.5000 45.2500
v 2.1048 -5.0813 45.2500
v 3.8891 -3.8891 45.2500
v 5.0813 -2.1048 45.2500
v 5.5000 -0.0000 45.2500
v 5.0813 2.1048 45.2500
v 3.8891 3.8891 45.2500
v 2.1048 5.0813 45.2500
v 0.0000 5.5000 45.2500
v -2.1048 5.0813 45.2500
v -3.8891 3.8891 45.2500
v -5.0813 2.1048 45.2500
v 0.0000 0.0000 42.7500
v 0.0000 0.0000 45.2500
v -1.2000 0.0000 41.5500
v -1.0392 -0.6000 41.5500
v -0.6000 -1.0392 41.5500
v -0.0000 -1.2000 41.5500
v 0.6000 -1.0392 41.5500
v 1.0392 -0.6000 41.5500
v 1.2000 -0.0000 41.5500
v 1.0392 0.6000 41.5500
v 0.6000 1.0392 41.5500
v 0.0000 1.2000 41.5500
v -0.6000 1.0392 41.5500
v -1.0392 0.6000 41.5500
v -1.2000 0.0000 46.4500
v -1.0392 -0.6000 46.4500
v -0.6000 -1.0392 46.4500
v -0.0000 -1.2000 46.4500
v 0.6000 -1.0392 46.4500
v 1.0392 -0.6000 46.4500
v 1.2000 -0.0000 46.4500
v 1.0392 0.6000 46.4500
v 0.6000 1.0392 46.4500
v 0.0000 1.2000 46.4500
v -0.6000 1.0392 46.4500
v -1.0392 0.6000 46.4500
v 0.0000 0.0000 41.5500
v 0.0000 0.0000 46.4500
v 5.5000 0.0000 -42.7500
v 5.0813 -2.1048 -42.7500
v 3.8891 -3.8891 -42.7500
v 2.1048 -5.0813 -42.7500
v 0.0000 -5.5000 -42.7500
v -2.1048 -5.0813 -42.7500
v -3.8891 -3.8891 -42.7500
v -5.0813 -2.1048 -42.7500
v -5.5000 -0.0000 -42.7500
v -5.0813 2.1048 -42.7500
v -3.8891 3.8891 -42.7500
v -2.1048 5.0813 -42.7500
v -0.0000 5.5000 -42.7500
v 2.1048 5.0813 -42.7500
v 3.8891 3.8891 -42.7500
v 5.0813 2.1048 -42.7500
v 5.5000 0.0000 -45.2500
v 5.0813 -2.1048 -45.2500
v 3.8891 -3.8891 -45.2500
v 2.1048 -5.0813 -45.2500
v 0.0000 -5.5000 -45.2500
v -2.1048 -5.0813 -45.2500
v -3.8891 -3.8891 -45.2500
v -5.0813 -2.1048 -45.2500
v -5.5000 -0.0000 -45.2500
v -5.0813 2.1048 -45.2500
v -3.8891 3.8891 -45.2500
v -2.1048 5.0813 -45.2500
v -0.0000 5.5000 -45.2500
v 2.1048 5.0813 -45.2500
v 3.8891 3.8891 -45.2500
v 5.0813 2.1048 -45.2500
v 0.0000 0.0000 -42.7500
v 0.0000 0.0000 -45.2500
v 1.2000 0.0000 -41.5500
v 1.0392 -0.6000 -41.5500
v 0.6000 -1.0392 -41.5500
v 0.0000 -1.2000 -41.5500
v -0.6000 -1.0392 -41.5500
v -1.0392 -0.6000 -41.5500
v -1.2000 -0.0000 -41.5500
v -1.0392 0.6000 -41.5500
v -0.6000 1.0392 -41.5500
v -0.0000 1.2000 -41.5500
v 0.6000 1.0392 -41.5500
v 1.0392 0.6000 -41.5500
v 1.2000 0.0000 -46.4500
v 1.0392 -0.6000 -46.4500
v 0.6000 -1.0392 -46.4500
v 0.0000 -1.2000 -46.4500
v -0.6000 -1.0392 -46.4500
v -1.0392 -0.6000 -46.4500
v -1.2000 -0.0000 -46.4500
v -1.0392 0.6000 -46.4500
v -0.6000 1.0392 -46.4500
v -0.0000 1.2000 -46.4500
v 0.6000 1.0392 -46.4500
v 1.0392 0.6000 -46.4500
v 0.0000 0.0000 -41.5500
v 0.0000 0.0000 -46.4500
v -1.8000 0.0000 44.4500
v 1.8000 0.0000 44.4500
v -1.8000 0.0000 43.5500
v 1.8000 0.0000 43.5500
v 3.1881 0.0000 44.3720
v 6.7655 0.0000 43.9690
v 3.0874 0.0000 43.4777
v 6.6647 0.0000 43.0746
v 8.1362 0.0000 43.7361
v 11.6459 0.0000 42.9350
v 7.9359 0.0000 42.8586
v 11.4457 0.0000 42.0576
v 12.9819 0.0000 42.5501
v 16.3799 0.0000 41.3611
v 12.6847 0.0000 41.7006
v 16.0826 0.0000 40.5116
v 17.6644 0.0000 40.8291
v 20.9079 0.0000 39.2671
v 17.2739 0.0000 40.0182
v 20.5174 0.0000 38.4562
v 22.1247 0.0000 38.5945
v 25.1729 0.0000 36.6792
v 21.6459 0.0000 37.8325
v 24.6941 0.0000 35.9172
v 26.3068 0.0000 35.8747
v 29.1214 0.0000 33.6301
v 25.7457 0.0000 35.1710
v 28.5603 0.0000 32.9265
v 30.1581 0.0000 32.7037
v 32.7037 0.0000 30.1581
v 29.5217 0.0000 32.0673
v 32.0673 0.0000 29.5217
v 33.6301 0.0000 29.1214
v 35.8747 0.0000 26.3068
v 32.9265 0.0000 28.5603
v 35.1710 0.0000 25.7457
v 36.6792 0.0000 25.1729
v 38.5945 0.0000 22.1247
v 35.9172 0.0000 24.6941
v 37.8325 0.0000 21.6459
v 39.2671 0.0000 20.9079
v 40.8291 0.0000 17.6644
v 38.4562 0.0000 20.5174
v 40.0182 0.0000 17.2739
v 41.3611 0.0000 16.3799
v 42.5501 0.0000 12.9819
v 40.5116 0.0000 16.0826
v 41.7006 0.0000 12.6847
v 42.9350 0.0000 11.6459
v 43.7361 0.0000 8.1362
v 42.0576 0.0000 11.4457
v 42.8586 0.0000 7.9359
v 43.9690 0.0000 6.7655
v 44.3720 0.0000 3.1881
v 43.0746 0.0000 6.6647
v 43.4777 0.0000 3.0874
v 44.4500 0.0000 1.8000
v 44.4500 0.0000 -1.8000
v 43.5500 0.0000 1.8000
v 43.5500 0.0000 -1.8000
v -0.0000 -1.8000 44.4500
v 0.0000 1.8000 44.4500
v -0.0000 -1.8000 43.5500
v 0.0000 1.8000 43.5500
v 0.0000 3.1881 44.3720
v 0.0000 6.7655 43.9690
v 0.0000 3.0874 43.4777
v 0.0000 6.6647 43.0746
v 0.0000 8.1362 43.7361
v 0.0000 11.6459 42.9350
v 0.0000 7.9359 42.8586
v 0.0000 11.4457 42.0576
v 0.0000 12.9819 42.5501
v 0.0000 16.3799 41.3611
v 0.0000 12.6847 41.7006
v 0.0000 16.0826 40.5116
v 0.0000 17.6644 40.8291
v 0.0000 20.9079 39.2671
v 0.0000 17.2739 40.0182
v 0.0000 20.5174 38.4562
v 0.0000 22.1247 38.5945
v 0.0000 25.1729 36.6792
v 0.0000 21.6459 37.8325
v 0.0000 24.6941 35.9172
v 0.0000 26.3068 35.8747
v 0.0000 29.1214 33.6301
v 0.0000 25.7457 35.1710
v 0.0000 28.5603 32.9265
v 0.0000 30.1581 32.7037
v 0.0000 32.7037 30.1581
v 0.0000 29.5217 32.0673
v 0.0000 32.0673 29.5217
v 0.0000 33.6301 29.1214
v 0.0000 35.8747 26.3068
v 0.0000 32.9265 28.5603
v 0.0000 35.1710 25.7457
v 0.0000 36.6792 25.1729
v 0.0000 38.5945 22.1247
v 0.0000 35.9172 24.6941
v 0.0000 37.8325 21.6459
v 0.0000 39.2671 20.9079
v 0.0000 40.8291 17.6644
v 0.0000 38.4562 20.5174
v 0.0000 40.0182 17.2739
v 0.0000 41.3611 16.3799
v 0.0000 42.5501 12.9819
v 0.0000 40.5116 16.0826
v 0.0000 41.7006 12.6847
v 0.0000 42.9350 11.6459
v 0.0000 43.7361 8.1362
v 0.0000 42.0576 11.4457
v 0.0000 42.8586 7.9359
v 0.0000 43.9690 6.7655
v 0.0000 44.3720 3.1881
v 0.0000 43.0746 6.6647
v 0.0000 43.4777 3.0874
v 0.0000 44.4500 1.8000
v 0.0000 44.4500 -1.8000
v 0.0000 43.5500 1.8000
v 0.0000 43.5500 -1.8000
v 1.8000 -0.0000 44.4500
v -1.8000 0.0000 44.4500
v 1.8000 -0.0000 43.5500
v -1.8000 0.0000 43.5500
v -3.1881 0.0000 44.3720
v -6.7655 0.0000 43.9690
v -3.0874 0.0000 43.4777
v -6.6647 0.0000 43.0746
v -8.1362 0.0000 43.7361
v -11.6459 0.0000 42.9350
v -7.9359 0.0000 42.8586
v -11.4457 0.0000 42.0576
v -12.9819 0.0000 42.5501
v -16.3799 0.0000 41.3611
v -12.6847 0.0000 41.7006
v -16.0826 0.0000 40.5116
v -17.6644 0.0000 40.8291
v -20.9079 0.0000 39.2671
v -17.2739 0.0000 40.0182
v -20.5174 0.0000 38.4562
v -22.1247 0.0000 38.5945
v -25.1729 0.0000 36.6792
v -21.6459 0.0000 37.8325
v -24.6941 0.0000 35.9172
v -26.3068 0.0000 35.8747
v -29.1214 0.0000 33.6301
v -25.7457 0.0000 35.1710
v -28.5603 0.0000 32.9265
v -30.1581 0.0000 32.7037
v -32.7037 0.0000 30.1581
v -29.5217 0.0000 32.0673
v -32.0673 0.0000 29.5217
v -33.6301 0.0000 29.1214
v -35.8747 0.0000 26.3068
v -32.9265 0.0000 28.5603
v -35.1710 0.0000 25.7457
v -36.6792 0.0000 25.1729
v -38.5945 0.0000 22.1247
v -35.9172 0.0000 24.6941
v -37.8325 0.0000 21.6459
v -39.2671 0.0000 20.9079
v -40.8291 0.0000 17.6644
v -38.4562 0.0000 20.5174
v -40.0182 0.0000 17.2739
v -41.3611 0.0000 16.3799
v -42.5501 0.0000 12.9819
v -40.5116 0.0000 16.0826
v -41.7006 0.0000 12.6847
v -42.9350 0.0000 11.6459
v -43.7361 0.0000 8.1362
v -42.0576 0.0000 11.4457
v -42.8586 0.0000 7.9359
v -43.9690 0.0000 6.7655
v -44.3720 0.0000 3.1881
v -43.0746 0.0000 6.6647
v -43.4777 0.0000 3.0874
v -44.4500 0.0000 1.8000
v -44.4500 0.0000 -1.8000
v -43.5500 0.0000 1.8000
v -43.5500 0.0000 -1.8000
v 0.0000 1.8000 44.4500
v -0.0000 -1.8000 44.4500
v 0.0000 1.8000 43.5500
v -0.0000 -1.8000 43.5500
v -0.0000 -3.1881 44.3720
v -0.0000 -6.7655 43.9690
v -0.0000 -3.0874 43.4777
v -0.0000 -6.6647 43.0746
v -0.0000 -8.1362 43.7361
v -0.0000 -11.6459 42.9350
v -0.0000 -7.9359 42.8586
v -0.0000 -11.4457 42.0576
v -0.0000 -12.9819 42.5501
v -0.0000 -16.3799 41.3611
v -0.0000 -12.6847 41.7006
v -0.0000 -16.0826 40.5116
v -0.0000 -17.6644 40.8291
v -0.0000 -20.9079 39.2671
v -0.0000 -17.2739 40.0182
v -0.0000 -20.5174 38.4562
v -0.0000 -22.1247 38.5945
v -0.0000 -25.1729 36.6792
v -0.0000 -21.6459 37.8325
v -0.0000 -24.6941 35.9172
v -0.0000 -26.3068 35.8747
v -0.0000 -29.1214 33.6301
v -0.0000 -25.7457 35.1710
v -0.0000 -28.5603 32.9265
v -0.0000 -30.1581 32.7037
v -0.0000 -32.7037 30.1581
v -0.0000 -29.5217 32.0673
v -0.0000 -32.0673 29.5217
v -0.0000 -33.6301 29.1214
v -0.0000 -35.8747 26.3068
v -0.0000 -32.9265 28.5603
v -0.0000 -35.1710 25.7457
v -0.0000 -36.6792 25.1729
v -0.0000 -38.5945 22.1247
v -0.0000 -35.9172 24.6941
v -0.0000 -37.8325 21.6459
v -0.0000 -39.2671 20.9079
v -0.0000 -40.8291 17.6644
v -0.0000 -38.4562 20.5174
v -0.0000 -40.0182 17.2739
v -0.0000 -41.3611 16.3799
v -0.0000 -42.5501 12.9819
v -0.0000 -40.5116 16.0826
v -0.0000 -41.7006 12.6847
v -0.0000 -42.9350 11.6459
v -0.0000 -43.7361 8.1362
v -0.0000 -42.0576 11.4457
v -0.0000 -42.8586 7.9359
v -0.0000 -43.9690 6.7655
v -0.0000 -44.3720 3.1881
v -0.0000 -43.0746 6.6647
v -0.0000 -43.4777 3.0874
v -0.0000 -44.4500 1.8000
v -0.0000 -44.4500 -1.8000
v -0.0000 -43.5500 1.8000
v -0.0000 -43.5500 -1.8000
v -1.2728 -1.2728 -44.4500
v 1.2728 1.2728 -44.4500
v -1.2728 -1.2728 -43.5500
v 1.2728 1.2728 -43.5500
v 2.2544 2.2544 -44.3720
v 4.7839 4.7839 -43.9690
v 2.1831 2.1831 -43.4777
v 4.7127 4.7127 -43.0746
v 5.7532 5.7532 -43.7361
v 8.2349 8.2349 -42.9350
v 5.6115 5.6115 -42.8586
v 8.0933 8.0933 -42.0576
v 9.1796 9.1796 -42.5501
v 11.5823 11.5823 -41.3611
v 8.9694 8.9694 -41.7006
v 11.3721 11.3721 -40.5116
v 12.4906 12.4906 -40.8291
v 14.7841 14.7841 -39.2671
v 12.2145 12.2145 -40.0182
v 14.5080 14.5080 -38.4562
v 15.6445 15.6445 -38.5945
v 17.7999 17.7999 -36.6792
v 15.3060 15.3060 -37.8325
v 17.4614 17.4614 -35.9172
v 18.6017 18.6017 -35.8747
v 20.5920 20.5920 -33.6301
v 18.2049 18.2049 -35.1710
v 20.1952 20.1952 -32.9265
v 21.3250 21.3250 -32.7037
v 23.1250 23.1250 -30.1581
v 20.8750 20.8750 -32.0673
v 22.6750 22.6750 -29.5217
v 23.7801 23.7801 -29.1214
v 25.3672 25.3672 -26.3068
v 23.2825 23.2825 -28.5603
v 24.8697 24.8697 -25.7457
v 25.9361 25.9361 -25.1729
v 27.2905 27.2905 -22.1247
v 25.3973 25.3973 -24.6941
v 26.7516 26.7516 -21.6459
v 27.7660 27.7660 -20.9079
v 28.8705 28.8705 -17.6644
v 27.1926 27.1926 -20.5174
v 28.2971 28.2971 -17.2739
v 29.2467 29.2467 -16.3799
v 30.0875 30.0875 -12.9819
v 28.6460 28.6460 -16.0826
v 29.4868 29.4868 -12.6847
v 30.3596 30.3596 -11.6459
v 30.9261 30.9261 -8.1362
v 29.7392 29.7392 -11.4457
v 30.3056 30.3056 -7.9359
v 31.0908 31.0908 -6.7655
v 31.3758 31.3758 -3.1881
v 30.4584 30.4584 -6.6647
v 30.7434 30.7434 -3.0874
v 31.4309 31.4309 -1.8000
v 31.4309 31.4309 1.8000
v 30.7945 30.7945 -1.8000
v 30.7945 30.7945 1.8000
v 1.2728 -1.2728 -44.4500
v -1.2728 1.2728 -44.4500
v 1.2728 -1.2728 -43.5500
v -1.2728 1.2728 -43.5500
v -2.2544 2.2544 -44.3720
v -4.7839 4.7839 -43.9690
v -2.1831 2.1831 -43.4777
v -4.7127 4.7127 -43.0746
v -5.7532 5.7532 -43.7361
v -8.2349 8.2349 -42.9350
v -5.6115 5.6115 -42.8586
v -8.0933 8.0933 -42.0576
v -9.1796 9.1796 -42.5501
v -11.5823 11.5823 -41.3611
v -8.9694 8.9694 -41.7006
v -11.3721 11.3721 -40.5116
v -12.4906 12.4906 -40.8291
v -14.7841 14.7841 -39.2671
v -12.2145 12.2145 -40.0182
v -14.5080 14.5080 -38.4562
v -15.6445 15.6445 -38.5945
v -17.7999 17.7999 -36.6792
v -15.3060 15.3060 -37.8325
v -17.4614 17.4614 -35.9172
v -18.6017 18.6017 -35.8747
v -20.5920 20.5920 -33.6301
v -18.2049 18.2049 -35.1710
v -20.1952 20.1952 -32.9265
v -21.3250 21.3250 -32.7037
v -23.1250 23.1250 -30.1581
v -20.8750 20.8750 -32.0673
v -22.6750 22.6750 -29.5217
v -23.7801 23.7801 -29.1214
v -25.3672 25.3672 -26.3068
v -23.2825 23.2825 -28.5603
v -24.8697 24.8697 -25.7457
v -25.9361 25.9361 -25.1729
v -27.2905 27.2905 -22.1247
v -25.3973 25.3973 -24.6941
v -26.7516 26.7516 -21.6459
v -27.7660 27.7660 -20.9079
v -28.8705 28.8705 -17.6644
v -27.1926 27.1926 -20.5174
v -28.2971 28.2971 -17.2739
v -29.2467 29.2467 -16.3799
v -30.0875 30.0875 -12.9819
v -28.6460 28.6460 -16.0826
v -29.4868 29.4868 -12.6847
v -30.3596 30.3596 -11.6459
v -30.9261 30.9261 -8.1362
v -29.7392 29.7392 -11.4457
v -30.3056 30.3056 -7.9359
v -31.0908 31.0908 -6.7655
v -31.3758 31.3758 -3.1881
v -30.4584 30.4584 -6.6647
v -30.7434 30.7434 -3.0874
v -31.4309 31.4309 -1.8000
v -31.4309 31.4309 1.8000
v -30.7945 30.7945 -1.8000
v -30.7945 30.7945 1.8000
v 1.2728 1.2728 -44.4500
v -1.2728 -1.2728 -44.4500
v 1.2728 1.2728 -43.5500
v -1.2728 -1.2728 -43.5500
v -2.2544 -2.2544 -44.3720
v -4.7839 -4.7839 -43.9690
v -2.1831 -2.1831 -43.4777
v -4.7127 -4.7127 -43.0746
v -5.7532 -5.7532 -43.7361
v -8.2349 -8.2349 -42.9350
v -5.6115 -5.6115 -42.8586
v -8.0933 -8.0933 -42.0576
v -9.1796 -9.1796 -42.5501
v -11.5823 -11.5823 -41.3611
v -8.9694 -8.9694 -41.7006
v -11.3721 -11.3721 -40.5116
v -12.4906 -12.4906 -40.8291
v -14.7841 -14.7841 -39.2671
v -12.2145 -12.2145 -40.0182
v -14.5080 -14.5080 -38.4562
v -15.6445 -15.6445 -38.5945
v -17.7999 -17.7999 -36.6792
v -15.3060 -15.3060 -37.8325
v -17.4614 -17.4614 -35.9172
v -18.6017 -18.6017 -35.8747
v -20.5920 -20.5920 -33.6301
v -18.2049 -18.2049 -35.1710
v -20.1952 -20.1952 -32.9265
v -21.3250 -21.3250 -32.7037
v -23.1250 -23.1250 -30.1581
v -20.8750 -20.8750 -32.0673
v -22.6750 -22.6750 -29.5217
v -23.7801 -23.7801 -29.1214
v -25.3672 -25.3672 -26.3068
v -23.2825 -23.2825 -28.5603
v -24.8697 -24.8697 -25.7457
v -25.9361 -25.9361 -25.1729
v -27.2905 -27.2905 -22.1247
v -25.3973 -25.3973 -24.6941
v -26.7516 -26.7516 -21.6459
v -27.7660 -27.7660 -20.9079
v -28.8705 -28.8705 -17.6644
v -27.1926 -27.1926 -20.5174
v -28.2971 -28.2971 -17.2739
v -29.2467 -29.2467 -16.3799
v -30.0875 -30.0875 -12.9819
v -28.6460 -28.6460 -16.0826
v -29.4868 -29.4868 -12.6847
v -30.3596 -30.3596 -11.6459
v -30.9261 -30.9261 -8.1362
v -29.7392 -29.7392 -11.4457
v -30.3056 -30.3056 -7.9359
v -31.0908 -31.0908 -6.7655
v -31.3758 -31.3758 -3.1881
v -30.4584 -30.4584 -6.6647
v -30.7434 -30.7434 -3.0874
v -31.4309 -31.4309 -1.8000
v -31.4309 -31.4309 1.8000
v -30.7945 -30.7945 -1.8000
v -30.7945 -30.7945 1.8000
v -1.2728 1.2728 -44.4500
v 1.2728 -1.2728 -44.4500
v -1.2728 1.2728 -43.5500
v 1.2728 -1.2728 -43.5500
v 2.2544 -2.2544 -44.3720
v 4.7839 -4.7839 -43.9690
v 2.1831 -2.1831 -43.4777
v 4.7127 -4.7127 -43.0746
v 5.7532 -5.7532 -43.7361
v 8.2349 -8.2349 -42.9350
v 5.6115 -5.6115 -42.8586
v 8.0933 -8.0933 -42.0576
v 9.1796 -9.1796 -42.5501
v 11.5823 -11.5823 -41.3611
v 8.9694 -8.9694 -41.7006
v 11.3721 -11.3721 -40.5116
v 12.4906 -12.4906 -40.8291
v 14.7841 -14.7841 -39.2671
v 12.2145 -12.2145 -40.0182
v 14.5080 -14.5080 -38.4562
v 15.6445 -15.6445 -38.5945
v 17.7999 -17.7999 -36.6792
v 15.3060 -15.3060 -37.8325
v 17.4614 -17.4614 -35.9172
v 18.6017 -18.6017 -35.8747
v 20.5920 -20.5920 -33.6301
v 18.2049 -18.2049 -35.1710
v 20.1952 -20.1952 -32.9265
v 21.3250 -21.3250 -32.7037
v 23.1250 -23.1250 -30.1581
v 20.8750 -20.8750 -32.0673
v 22.6750 -22.6750 -29.5217
v 23.7801 -23.7801 -29.1214
v 25.3672 -25.3672 -26.3068
v 23.2825 -23.2825 -28.5603
v 24.8697 -24.8697 -25.7457
v 25.9361 -25.9361 -25.1729
v 27.2905 -27.2905 -22.1247
v 25.3973 -25.3973 -24.6941
v 26.7516 -26.7516 -21.6459
v 27.7660 -27.7660 -20.9079
v 28.8705 -28.8705 -17.6644
v 27.1926 -27.1926 -20.5174
v 28.2971 -28.2971 -17.2739
v 29.2467 -29.2467 -16.3799
v 30.0875 -30.0875 -12.9819
v 28.6460 -28.6460 -16.0826
v 29.4868 -29.4868 -12.6847
v 30.3596 -30.3596 -11.6459
v 30.9261 -30.9261 -8.1362
v 29.7392 -29.7392 -11.4457
v 30.3056 -30.3056 -7.9359
v 31.0908 -31.0908 -6.7655
v 31.3758 -31.3758 -3.1881
v 30.4584 -30.4584 -6.6647
v 30.7434 -30.7434 -3.0874
v 31.4309 -31.4309 -1.8000
v 31.4309 -31.4309 1.8000
v 30.7945 -30.7945 -1.8000
v 30.7945 -30.7945 1.8000
v 44.4500 -1.8000 0.0000
v 44.4500 1.8000 0.0000
v 43.5500 -1.8000 0.0000
v 43.5500 1.8000 0.0000
v 44.4124 2.5655 0.0000
v 44.0595 6.1482 0.0000
v 43.5167 2.4773 0.0000
v 43.1639 6.0600 0.0000
v 43.9471 6.9064 0.0000
v 43.2447 10.4372 0.0000
v 43.0644 6.7308 0.0000
v 42.3620 10.2616 0.0000
v 43.0585 11.1807 0.0000
v 42.0135 14.6256 0.0000
v 42.1973 10.9194 0.0000
v 41.1522 14.3644 0.0000
v 41.7553 15.3473 0.0000
v 40.3776 18.6733 0.0000
v 40.9238 15.0029 0.0000
v 39.5461 18.3288 0.0000
v 40.0499 19.3661 0.0000
v 38.3529 22.5410 0.0000
v 39.2562 18.9419 0.0000
v 37.5592 22.1168 0.0000
v 37.9589 23.1985 0.0000
v 35.9588 26.1917 0.0000
v 37.2105 22.6984 0.0000
v 35.2105 25.6917 0.0000
v 35.5022 26.8074 0.0000
v 33.2184 29.5902 0.0000
v 34.8065 26.2364 0.0000
v 32.5227 29.0192 0.0000
v 32.7037 30.1581 0.0000
v 30.1581 32.7037 0.0000
v 32.0673 29.5217 0.0000
v 29.5217 32.0673 0.0000
v 32.7037 30.1581 0.0000
v 30.1581 32.7037 0.0000
v 32.0673 29.5217 0.0000
v 29.5217 32.0673 0.0000
v 29.5902 33.2184 0.0000
v 26.8074 35.5022 0.0000
v 29.0192 32.5227 0.0000
v 26.2364 34.8065 0.0000
v 26.1917 35.9588 0.0000
v 23.1985 37.9589 0.0000
v 25.6917 35.2105 0.0000
v 22.6984 37.2105 0.0000
v 22.5410 38.3529 0.0000
v 19.3661 40.0499 0.0000
v 22.1168 37.5592 0.0000
v 18.9419 39.2562 0.0000
v 18.6733 40.3776 0.0000
v 15.3473 41.7553 0.0000
v 18.3288 39.5461 0.0000
v 15.0029 40.9238 0.0000
v 14.6256 42.0135 0.0000
v 11.1807 43.0585 0.0000
v 14.3644 41.1522 0.0000
v 10.9194 42.1973 0.0000
v 10.4372 43.2447 0.0000
v 6.9064 43.9471 0.0000
v 10.2616 42.3620 0.0000
v 6.7308 43.0644 0.0000
v 6.1482 44.0595 0.0000
v 2.5655 44.4124 0.0000
v 6.0600 43.1639 0.0000
v 2.4773 43.5167 0.0000
v 1.8000 44.4500 0.0000
v -1.8000 44.4500 0.0000
v 1.8000 43.5500 0.0000
v -1.8000 43.5500 0.0000
v 1.8000 44.4500 0.0000
v -1.8000 44.4500 0.0000
v 1.8000 43.5500 0.0000
v -1.8000 43.5500 0.0000
v -2.5655 44.4124 0.0000
v -6.1482 44.0595 0.0000
v -2.4773 43.5167 0.0000
v -6.0600 43.1639 0.0000
v -6.9064 43.9471 0.0000
v -10.4372 43.2447 0.0000
v -6.7308 43.0644 0.0000
v -10.2616 42.3620 0.0000
v -11.1807 43.0585 0.0000
v -14.6256 42.0135 0.0000
v -10.9194 42.1973 0.0000
v -14.3644 41.1522 0.0000
v -15.3473 41.7553 0.0000
v -18.6733 40.3776 0.0000
v -15.0029 40.9238 0.0000
v -18.3288 39.5461 0.0000
v -19.3661 40.0499 0.0000
v -22.5410 38.3529 0.0000
v -18.9419 39.2562 0.0000
v -22.1168 37.5592 0.0000
v -23.1985 37.9589 0.0000
v -26.1917 35.9588 0.0000
v -22.6984 37.2105 0.0000
v -25.6917 35.2105 0.0000
v -26.8074 35.5022 0.0000
v -29.5902 33.2184 0.0000
v -26.2364 34.8065 0.0000
v -29.0192 32.5227 0.0000
v -30.1581 32.7037 0.0000
v -32.7037 30.1581 0.0000
v -29.5217 32.0673 0.0000
v -32.0673 29.5217 0.0000
v -30.1581 32.7037 0.0000
v -32.7037 30.1581 0.0000
v -29.5217 32.0673 0.0000
v -32.0673 29.5217 0.0000
v -33.2184 29.5902 0.0000
v -35.5022 26.8074 0.0000
v -32.5227 29.0192 0.0000
v -34.8065 26.2364 0.0000
v -35.9588 26.1917 0.0000
v -37.9589 23.1985 0.0000
v -35.2105 25.6917 0.0000
v -37.2105 22.6984 0.0000
v -38.3529 22.5410 0.0000
v -40.0499 19.3661 0.0000
v -37.5592 22.1168 0.0000
v -39.2562 18.9419 0.0000
v -40.3776 18.6733 0.0000
v -41.7553 15.3473 0.0000
v -39.5461 18.3288 0.0000
v -40.9238 15.0029 0.0000
v -42.0135 14.6256 0.0000
v -43.0585 11.1807 0.0000
v -41.1522 14.3644 0.0000
v -42.1973 10.9194 0.0000
v -43.2447 10.4372 0.0000
v -43.9471 6.9064 0.0000
v -42.3620 10.2616 0.0000
v -43.0644 6.7308 0.0000
v -44.0595 6.1482 0.0000
v -44.4124 2.5655 0.0000
v -43.1639 6.0600 0.0000
v -43.5167 2.4773 0.0000
v -44.4500 1.8000 0.0000
v -44.4500 -1.8000 0.0000
v -43.5500 1.8000 0.0000
v -43.5500 -1.8000 0.0000
v -44.4500 1.8000 0.0000
v -44.4500 -1.8000 0.0000
v -43.5500 1.8000 0.0000
v -43.5500 -1.8000 0.0000
v -44.4124 -2.5655 0.0000
v -44.0595 -6.1482 0.0000
v -43.5167 -2.4773 0.0000
v -43.1639 -6.0600 0.0000
v -43.9471 -6.9064 0.0000
v -43.2447 -10.4372 0.0000
v -43.0644 -6.7308 0.0000
v -42.3620 -10.2616 0.0000
v -43.0585 -11.1807 0.0000
v -42.0135 -14.6256 0.0000
v -42.1973 -10.9194 0.0000
v -41.1522 -14.3644 0.0000
v -41.7553 -15.3473 0.0000
v -40.3776 -18.6733 0.0000
v -40.9238 -15.0029 0.0000
v -39.5461 -18.3288 0.0000
v -40.0499 -19.3661 0.0000
v -38.3529 -22.5410 0.0000
v -39.2562 -18.9419 0.0000
v -37.5592 -22.1168 0.0000
v -37.9589 -23.1985 0.0000
v -35.9588 -26.1917 0.0000
v -37.2105 -22.6984 0.0000
v -35.2105 -25.6917 0.0000
v -35.5022 -26.8074 0.0000
v -33.2184 -29.5902 0.0000
v -34.8065 -26.2364 0.0000
v -32.5227 -29.0192 0.0000
v -32.7037 -30.1581 0.0000
v -30.1581 -32.7037 0.0000
v -32.0673 -29.5217 0.0000
v -29.5217 -32.0673 0.0000
v -32.7037 -30.1581 0.0000
v -30.1581 -32.7037 0.0000
v -32.0673 -29.5217 0.0000
v -29.5217 -32.0673 0.0000
v -29.5902 -33.2184 0.0000
v -26.8074 -35.5022 0.0000
v -29.0192 -32.5227 0.0000
v -26.2364 -34.8065 0.0000
v -26.1917 -35.9588 0.0000
v -23.1985 -37.9589 0.0000
v -25.6917 -35.2105 0.0000
v -22.6984 -37.2105 0.0000
v -22.5410 -38.3529 0.0000
v -19.3661 -40.0499 0.0000
v -22.1168 -37.5592 0.0000
v -18.9419 -39.2562 0.0000
v -18.6733 -40.3776 0.0000
v -15.3473 -41.7553 0.0000
v -18.3288 -39.5461 0.0000
v -15.0029 -40.9238 0.0000
v -14.6256 -42.0135 0.0000
v -11.1807 -43.0585 0.0000
v -14.3644 -41.1522 0.0000
v -10.9194 -42.1973 0.0000
v -10.4372 -43.2447 0.0000
v -6.9064 -43.9471 0.0000
v -10.2616 -42.3620 0.0000
v -6.7308 -43.0644 0.0000
v -6.1482 -44.0595 0.0000
v -2.5655 -44.4124 0.0000
v -6.0600 -43.1639 0.0000
v -2.4773 -43.5167 0.0000
v -1.8000 -44.4500 0.0000
v 1.8000 -44.4500 0.0000
v -1.8000 -43.5500 0.0000
v 1.8000 -43.5500 0.0000
v -1.8000 -44.4500 0.0000
v 1.8000 -44.4500 0.0000
v -1.8000 -43.5500 0.0000
v 1.8000 -43.5500 0.0000
v 2.5655 -44.4124 0.0000
v 6.1482 -44.0595 0.0000
v 2.4773 -43.5167 0.0000
v 6.0600 -43.1639 0.0000
v 6.9064 -43.9471 0.0000
v 10.4372 -43.2447 0.0000
v 6.7308 -43.0644 0.0000
v 10.2616 -42.3620 0.0000
v 11.1807 -43.0585 0.0000
v 14.6256 -42.0135 0.0000
v 10.9194 -42.1973 0.0000
v 14.3644 -41.1522 0.0000
v 15.3473 -41.7553 0.0000
v 18.6733 -40.3776 0.0000
v 15.0029 -40.9238 0.0000
v 18.3288 -39.5461 0.0000
v 19.3661 -40.0499 0.0000
v 22.5410 -38.3529 0.0000
v 18.9419 -39.2562 0.0000
v 22.1168 -37.5592 0.0000
v 23.1985 -37.9589 0.0000
v 26.1917 -35.9588 0.0000
v 22.6984 -37.2105 0.0000
v 25.6917 -35.2105 0.0000
v 26.8074 -35.5022 0.0000
v 29.5902 -33.2184 0.0000
v 26.2364 -34.8065 0.0000
v 29.0192 -32.5227 0.0000
v 30.1581 -32.7037 0.0000
v 32.7037 -30.1581 0.0000
v 29.5217 -32.0673 0.0000
v 32.0673 -29.5217 0.0000
v 30.1581 -32.7037 0.0000
v 32.7037 -30.1581 0.0000
v 29.5217 -32.0673 0.0000
v 32.0673 -29.5217 0.0000
v 33.2184 -29.5902 0.0000
v 35.5022 -26.8074 0.0000
v 32.5227 -29.0192 0.0000
v 34.8065 -26.2364 0.0000
v 35.9588 -26.1917 0.0000
v 37.9589 -23.1985 0.0000
v 35.2105 -25.6917 0.0000
v 37.2105 -22.6984 0.0000
v 38.3529 -22.5410 0.0000
v 40.0499 -19.3661 0.0000
v 37.5592 -22.1168 0.0000
v 39.2562 -18.9419 0.0000
v 40.3776 -18.6733 0.0000
v 41.7553 -15.3473 0.0000
v 39.5461 -18.3288 0.0000
v 40.9238 -15.0029 0.0000
v 42.0135 -14.6256 0.0000
v 43.0585 -11.1807 0.0000
v 41.1522 -14.3644 0.0000
v 42.1973 -10.9194 0.0000
v 43.2447 -10.4372 0.0000
v 43.9471 -6.9064 0.0000
v 42.3620 -10.2616 0.0000
v 43.0644 -6.7308 0.0000
v 44.0595 -6.1482 0.0000
v 44.4124 -2.5655 0.0000
v 43.1639 -6.0600 0.0000
v 43.5167 -2.4773 0.0000
v 44.4500 -1.8000 0.0000
v 44.4500 1.8000 0.0000
v 43.5500 -1.8000 0.0000
v 43.5500 1.8000 0.0000
g collars
usemtl collars
f 1 2 20
f 1 20 19
f 2 3 21
f 2 21 20
f 3 4 22
f 3 22 21
f 4 5 23
f 4 23 22
f 5 6 24
f 5 24 23
f 6 7 25
f 6 25 24
f 7 8 26
f 7 26 25
f 8 9 27
f 8 27 26
f 9 10 28
f 9 28 27
f 10 11 29
f 10 29 28
f 11 12 30
f 11 30 29
f 12 13 31
f 12 31 30
f 13 14 32
f 13 32 31
f 14 15 33
f 14 33 32
f 15 16 34
f 15 34 33
f 16 17 35
f 16 35 34
f 17 18 36
f 17 36 35
f 18 1 19
f 18 19 36
f 37 2 1
f 38 19 20
f 37 3 2
f 38 20 21
f 37 4 3
f 38 21 22
f 37 5 4
f 38 22 23
f 37 6 5
f 38 23 24
f 37 7 6
f 38 24 25
f 37 8 7
f 38 25 26
f 37 9 8
f 38 26 27
f 37 10 9
f 38 27 28
f 37 11 10
f 38 28 29
f 37 12 11
f 38 29 30
f 37 13 12
f 38 30 31
f 37 14 13
f 38 31 32
f 37 15 14
f 38 32 33
f 37 16 15
f 38 33 34
f 37 17 16
f 38 34 35
f 37 18 17
f 38 35 36
f 37 1 18
f 38 36 19
f 39 40 58
f 39 58 57
f 40 41 59
f 40 59 58
f 41 42 60
f 41 60 59
f 42 43 61
f 42 61 60
f 43 44 62
f 43 62 61
f 44 45 63
f 44 63 62
f 45 46 64
f 45 64 63
f 46 47 65
f 46 65 64
f 47 48 66
f 47 66 65
f 48 49 67
f 48 67 66
f 49 50 68
f 49 68 67
f 50 51 69
f 50 69 68
f 51 52 70
f 51 70 69
f 52 53 71
f 52 71 70
f 53 54 72
f 53 72 71
f 54 55 73
f 54 73 72
f 55 56 74
f 55 74 73
f 56 39 57
f 56 57 74
f 75 40 39
f 76 57 58
f 75 41 40
f 76 58 59
f 75 42 41
f 76 59 60
f 75 43 42
f 76 60 61
f 75 44 43
f 76 61 62
f 75 45 44
f 76 62 63
f 75 46 45
f 76 63 64
f 75 47 46
f 76 64 65
f 75 48 47
f 76 65 66
f 75 49 48
f 76 66 67
f 75 50 49
f 76 67 68
f 75 51 50
f 76 68 69
f 75 52 51
f 76 69 70
f 75 53 52
f 76 70 71
f 75 54 53
f 76 71 72
f 75 55 54
f 76 72 73
f 75 56 55
f 76 73 74
f 75 39 56
f 76 74 57
f 583 584 600
f 583 600 599
f 584 585 601
f 584 601 600
f 585 586 602
f 585 602 601
f 586 587 603
f 586 603 602
f 587 588 604
f 587 604 603
f 588 589 605
f 588 605 604
f 589 590 606
f 589 606 605
f 590 591 607
f 590 607 606
f 591 592 608
f 591 608 607
f 592 593 609
f 592 609 608
f 593 594 610
f 593 610 609
f 594 595 611
f 594 611 610
f 595 596 612
f 595 612 611
f 596 597 613
f 596 613 612
f 597 598 614
f 597 614 613
f 598 583 599
f 598 599 614
f 615 584 583
f 616 599 600
f 615 585 584
f 616 600 601
f 615 586 585
f 616 601 602
f 615 587 586
f 616 602 603
f 615 588 587
f 616 603 604
f 615 589 588
f 616 604 605
f 615 590 589
f 616 605 606
f 615 591 590
f 616 606 607
f 615 592 591
f 616 607 608
f 615 593 592
f 616 608 609
f 615 594 593
f 616 609 610
f 615 595 594
f 616 610 611
f 615 596 595
f 616 611 612
f 615 597 596
f 616 612 613
f 615 598 597
f 616 613 614
f 615 583 598
f 616 614 599
f 643 644 660
f 643 660 659
f 644 645 661
f 644 661 660
f 645 646 662
f 645 662 661
f 646 647 663
f 646 663 662
f 647 648 664
f 647 664 663
f 648 649 665
f 648 665 664
f 649 650 666
f 649 666 665
f 650 651 667
f 650 667 666
f 651 652 668
f 651 668 667
f 652 653 669
f 652 669 668
f 653 654 670
f 653 670 669
f 654 655 671
f 654 671 670
f 655 656 672
f 655 672 671
f 656 657 673
f 656 673 672
f 657 658 674
f 657 674 673
f 658 643 659
f 658 659 674
f 675 644 643
f 676 659 660
f 675 645 644
f 676 660 661
f 675 646 645
f 676 661 662
f 675 647 646
f 676 662 663
f 675 648 647
f 676 663 664
f 675 649 648
f 676 664 665
f 675 650 649
f 676 665 666
f 675 651 650
f 676 666 667
f 675 652 651
f 676 667 668
f 675 653 652
f 676 668 669
f 675 654 653
f 676 669 670
f 675 655 654
f 676 670 671
f 675 656 655
f 676 671 672
f 675 657 656
f 676 672 673
f 675 658 657
f 676 673 674
f 675 643 658
f 676 674 659
g shaft
usemtl shaft
f 77 78 90
f 77 90 89
f 78 79 91
f 78 91 90
f 79 80 92
f 79 92 91
f 80 81 93
f 80 93 92
f 81 82 94
f 81 94 93
f 82 83 95
f 82 95 94
f 83 84 96
f 83 96 95
f 84 85 97
f 84 97 96
f 85 86 98
f 85 98 97
f 86 87 99
f 86 99 98
f 87 88 100
f 87 100 99
f 88 77 89
f 88 89 100
f 101 78 77
f 102 89 90
f 101 79 78
f 102 90 91
f 101 80 79
f 102 91 92
f 101 81 80
f 102 92 93
f 101 82 81
f 102 93 94
f 101 83 82
f 102 94 95
f 101 84 83
f 102 95 96
f 101 85 84
f 102 96 97
f 101 86 85
f 102 97 98
f 101 87 86
f 102 98 99
f 101 88 87
f 102 99 100
f 101 77 88
f 102 100 89
g links_equatorial
usemtl links_equatorial
f 103 104 120
f 103 120 119
f 104 105 121
f 104 121 120
f 105 106 122
f 105 122 121
f 106 107 123
f 106 123 122
f 107 108 124
f 107 124 123
f 108 109 125
f 108 125 124
f 109 110 126
f 109 126 125
f 110 111 127
f 110 127 126
f 111 112 128
f 111 128 127
f 112 113 129
f 112 129 128
f 113 114 130
f 113 130 129
f 114 115 131
f 114 131 130
f 115 116 132
f 115 132 131
f 116 117 133
f 116 133 132
f 117 118 134
f 117 134 133
f 118 103 119
f 118 119 134
f 135 104 103
f 136 119 120
f 135 105 104
f 136 120 121
f 135 106 105
f 136 121 122
f 135 107 106
f 136 122 123
f 135 108 107
f 136 123 124
f 135 109 108
f 136 124 125
f 135 110 109
f 136 125 126
f 135 111 110
f 136 126 127
f 135 112 111
f 136 127 128
f 135 113 112
f 136 128 129
f 135 114 113
f 136 129 130
f 135 115 114
f 136 130 131
f 135 116 115
f 136 131 132
f 135 117 116
f 136 132 133
f 135 118 117
f 136 133 134
f 135 103 118
f 136 134 119
f 163 164 180
f 163 180 179
f 164 165 181
f 164 181 180
f 165 166 182
f 165 182 181
f 166 167 183
f 166 183 182
f 167 168 184
f 167 184 183
f 168 169 185
f 168 185 184
f 169 170 186
f 169 186 185
f 170 171 187
f 170 187 186
f 171 172 188
f 171 188 187
f 172 173 189
f 172 189 188
f 173 174 190
f 173 190 189
f 174 175 191
f 174 191 190
f 175 176 192
f 175 192 191
f 176 177 193
f 176 193 192
f 177 178 194
f 177 194 193
f 178 163 179
f 178 179 194
f 195 164 163
f 196 179 180
f 195 165 164
f 196 180 181
f 195 166 165
f 196 181 182
f 195 167 166
f 196 182 183
f 195 168 167
f 196 183 184
f 195 169 168
f 196 184 185
f 195 170 169
f 196 185 186
f 195 171 170
f 196 186 187
f 195 172 171
f 196 187 188
f 195 173 172
f 196 188 189
f 195 174 173
f 196 189 190
f 195 175 174
f 196 190 191
f 195 176 175
f 196 191 192
f 195 177 176
f 196 192 193
f 195 178 177
f 196 193 194
f 195 163 178
f 196 194 179
f 223 224 240
f 223 240 239
f 224 225 241
f 224 241 240
f 225 226 242
f 225 242 241
f 226 227 243
f 226 243 242
f 227 228 244
f 227 244 243
f 228 229 245
f 228 245 244
f 229 230 246
f 229 246 245
f 230 231 247
f 230 247 246
f 231 232 248
f 231 248 247
f 232 233 249
f 232 249 248
f 233 234 250
f 233 250 249
f 234 235 251
f 234 251 250
f 235 236 252
f 235 252 251
f 236 237 253
f 236 253 252
f 237 238 254
f 237 254 253
f 238 223 239
f 238 239 254
f 255 224 223
f 256 239 240
f 255 225 224
f 256 240 241
f 255 226 225
f 256 241 242
f 255 227 226
f 256 242 243
f 255 228 227
f 256 243 244
f 255 229 228
f 256 244 245
f 255 230 229
f 256 245 246
f 255 231 230
f 256 246 247
f 255 232 231
f 256 247 248
f 255 233 232
f 256 248 249
f 255 234 233
f 256 249 250
f 255 235 234
f 256 250 251
f 255 236 235
f 256 251 252
f 255 237 236
f 256 252 253
f 255 238 237
f 256 253 254
f 255 223 238
f 256 254 239
f 283 284 300
f 283 300 299
f 284 285 301
f 284 301 300
f 285 286 302
f 285 302 301
f 286 287 303
f 286 303 302
f 287 288 304
f 287 304 303
f 288 289 305
f 288 305 304
f 289 290 306
f 289 306 305
f 290 291 307
f 290 307 306
f 291 292 308
f 291 308 307
f 292 293 309
f 292 309 308
f 293 294 310
f 293 310 309
f 294 295 311
f 294 311 310
f 295 296 312
f 295 312 311
f 296 297 313
f 296 313 312
f 297 298 314
f 297 314 313
f 298 283 299
f 298 299 314
f 315 284 283
f 316 299 300
f 315 285 284
f 316 300 301
f 315 286 285
f 316 301 302
f 315 287 286
f 316 302 303
f 315 288 287
f 316 303 304
f 315 289 288
f 316 304 305
f 315 290 289
f 316 305 306
f 315 291 290
f 316 306 307
f 315 292 291
f 316 307 308
f 315 293 292
f 316 308 309
f 315 294 293
f 316 309 310
f 315 295 294
f 316 310 311
f 315 296 295
f 316 311 312
f 315 297 296
f 316 312 313
f 315 298 297
f 316 313 314
f 315 283 298
f 316 314 299
f 343 344 360
f 343 360 359
f 344 345 361
f 344 361 360
f 345 346 362
f 345 362 361
f 346 347 363
f 346 363 362
f 347 348 364
f 347 364 363
f 348 349 365
f 348 365 364
f 349 350 366
f 349 366 365
f 350 351 367
f 350 367 366
f 351 352 368
f 351 368 367
f 352 353 369
f 352 369 368
f 353 354 370
f 353 370 369
f 354 355 371
f 354 371 370
f 355 356 372
f 355 372 371
f 356 357 373
f 356 373 372
f 357 358 374
f 357 374 373
f 358 343 359
f 358 359 374
f 375 344 343
f 376 359 360
f 375 345 344
f 376 360 361
f 375 346 345
f 376 361 362
f 375 347 346
f 376 362 363
f 375 348 347
f 376 363 364
f 375 349 348
f 376 364 365
f 375 350 349
f 376 365 366
f 375 351 350
f 376 366 367
f 375 352 351
f 376 367 368
f 375 353 352
f 376 368 369
f 375 354 353
f 376 369 370
f 375 355 354
f 376 370 371
f 375 356 355
f 376 371 372
f 375 357 356
f 376 372 373
f 375 358 357
f 376 373 374
f 375 343 358
f 376 374 359
f 403 404 420
f 403 420 419
f 404 405 421
f 404 421 420
f 405 406 422
f 405 422 421
f 406 407 423
f 406 423 422
f 407 408 424
f 407 424 423
f 408 409 425
f 408 425 424
f 409 410 426
f 409 426 425
f 410 411 427
f 410 427 426
f 411 412 428
f 411 428 427
f 412 413 429
f 412 429 428
f 413 414 430
f 413 430 429
f 414 415 431
f 414 431 430
f 415 416 432
f 415 432 431
f 416 417 433
f 416 433 432
f 417 418 434
f 417 434 433
f 418 403 419
f 418 419 434
f 435 404 403
f 436 419 420
f 435 405 404
f 436 420 421
f 435 406 405
f 436 421 422
f 435 407 406
f 436 422 423
f 435 408 407
f 436 423 424
f 435 409 408
f 436 424 425
f 435 410 409
f 436 425 426
f 435 411 410
f 436 426 427
f 435 412 411
f 436 427 428
f 435 413 412
f 436 428 429
f 435 414 413
f 436 429 430
f 435 415 414
f 436 430 431
f 435 416 415
f 436 431 432
f 435 417 416
f 436 432 433
f 435 418 417
f 436 433 434
f 435 403 418
f 436 434 419
f 463 464 480
f 463 480 479
f 464 465 481
f 464 481 480
f 465 466 482
f 465 482 481
f 466 467 483
f 466 483 482
f 467 468 484
f 467 484 483
f 468 469 485
f 468 485 484
f 469 470 486
f 469 486 485
f 470 471 487
f 470 487 486
f 471 472 488
f 471 488 487
f 472 473 489
f 472 489 488
f 473 474 490
f 473 490 489
f 474 475 491
f 474 491 490
f 475 476 492
f 475 492 491
f 476 477 493
f 476 493 492
f 477 478 494
f 477 494 493
f 478 463 479
f 478 479 494
f 495 464 463
f 496 479 480
f 495 465 464
f 496 480 481
f 495 466 465
f 496 481 482
f 495 467 466
f 496 482 483
f 495 468 467
f 496 483 484
f 495 469 468
f 496 484 485
f 495 470 469
f 496 485 486
f 495 471 470
f 496 486 487
f 495 472 471
f 496 487 488
f 495 473 472
f 496 488 489
f 495 474 473
f 496 489 490
f 495 475 474
f 496 490 491
f 495 476 475
f 496 491 492
f 495 477 476
f 496 492 493
f 495 478 477
f 496 493 494
f 495 463 478
f 496 494 479
f 523 524 540
f 523 540 539
f 524 525 541
f 524 541 540
f 525 526 542
f 525 542 541
f 526 527 543
f 526 543 542
f 527 528 544
f 527 544 543
f 528 529 545
f 528 545 544
f 529 530 546
f 529 546 545
f 530 531 547
f 530 547 546
f 531 532 548
f 531 548 547
f 532 533 549
f 532 549 548
f 533 534 550
f 533 550 549
f 534 535 551
f 534 551 550
f 535 536 552
f 535 552 551
f 536 537 553
f 536 553 552
f 537 538 554
f 537 554 553
f 538 523 539
f 538 539 554
f 555 524 523
f 556 539 540
f 555 525 524
f 556 540 541
f 555 526 525
f 556 541 542
f 555 527 526
f 556 542 543
f 555 528 527
f 556 543 544
f 555 529 528
f 556 544 545
f 555 530 529
f 556 545 546
f 555 531 530
f 556 546 547
f 555 532 531
f 556 547 548
f 555 533 532
f 556 548 549
f 555 534 533
f 556 549 550
f 555 535 534
f 556 550 551
f 555 536 535
f 556 551 552
f 555 537 536
f 556 552 553
f 555 538 537
f 556 553 554
f 555 523 538
f 556 554 539
f 703 707 708
f 703 708 704
f 705 710 709
f 705 706 710
f 703 709 707
f 703 705 709
f 704 708 710
f 704 710 706
f 707 711 712
f 707 712 708
f 709 714 713
f 709 710 714
f 707 713 711
f 707 709 713
f 708 712 714
f 708 714 710
f 711 715 716
f 711 716 712
f 713 718 717
f 713 714 718
f 711 717 715
f 711 713 717
f 712 716 718
f 712 718 714
f 715 719 720
f 715 720 716
f 717 722 721
f 717 718 722
f 715 721 719
f 715 717 721
f 716 720 722
f 716 722 718
f 719 723 724
f 719 724 720
f 721 726 725
f 721 722 726
f 719 725 723
f 719 721 725
f 720 724 726
f 720 726 722
f 723 727 728
f 723 728 724
f 725 730 729
f 725 726 730
f 723 729 727
f 723 725 729
f 724 728 730
f 724 730 726
f 727 731 732
f 727 732 728
f 729 734 733
f 729 730 734
f 727 733 731
f 727 729 733
f 728 732 734
f 728 734 730
f 731 735 736
f 731 736 732
f 733 738 737
f 733 734 738
f 731 737 735
f 731 733 737
f 732 736 738
f 732 738 734
f 735 739 740
f 735 740 736
f 737 742 741
f 737 738 742
f 735 741 739
f 735 737 741
f 736 740 742
f 736 742 738
f 739 743 744
f 739 744 740
f 741 746 745
f 741 742 746
f 739 745 743
f 739 741 745
f 740 744 746
f 740 746 742
f 743 747 748
f 743 748 744
f 745 750 749
f 745 746 750
f 743 749 747
f 743 745 749
f 744 748 750
f 744 750 746
f 747 751 752
f 747 752 748
f 749 754 753
f 749 750 754
f 747 753 751
f 747 749 753
f 748 752 754
f 748 754 750
f 751 755 756
f 751 756 752
f 753 758 757
f 753 754 758
f 751 757 755
f 751 753 757
f 752 756 758
f 752 758 754
f 755 759 760
f 755 760 756
f 757 762 761
f 757 758 762
f 755 761 759
f 755 757 761
f 756 760 762
f 756 762 758
f 763 767 768
f 763 768 764
f 765 770 769
f 765 766 770
f 763 769 767
f 763 765 769
f 764 768 770
f 764 770 766
f 767 771 772
f 767 772 768
f 769 774 773
f 769 770 774
f 767 773 771
f 767 769 773
f 768 772 774
f 768 774 770
f 771 775 776
f 771 776 772
f 773 778 777
f 773 774 778
f 771 777 775
f 771 773 777
f 772 776 778
f 772 778 774
f 775 779 780
f 775 780 776
f 777 782 781
f 777 778 782
f 775 781 779
f 775 777 781
f 776 780 782
f 776 782 778
f 779 783 784
f 779 784 780
f 781 786 785
f 781 782 786
f 779 785 783
f 779 781 785
f 780 784 786
f 780 786 782
f 783 787 788
f 783 788 784
f 785 790 789
f 785 786 790
f 783 789 787
f 783 785 789
f 784 788 790
f 784 790 786
f 787 791 792
f 787 792 788
f 789 794 793
f 789 790 794
f 787 793 791
f 787 789 793
f 788 792 794
f 788 794 790
f 791 795 796
f 791 796 792
f 793 798 797
f 793 794 798
f 791 797 795
f 791 793 797
f 792 796 798
f 792 798 794
f 795 799 800
f 795 800 796
f 797 802 801
f 797 798 802
f 795 801 799
f 795 797 801
f 796 800 802
f 796 802 798
f 799 803 804
f 799 804 800
f 801 806 805
f 801 802 806
f 799 805 803
f 799 801 805
f 800 804 806
f 800 806 802
f 803 807 808
f 803 808 804
f 805 810 809
f 805 806 810
f 803 809 807
f 803 805 809
f 804 808 810
f 804 810 806
f 807 811 812
f 807 812 808
f 809 814 813
f 809 810 814
f 807 813 811
f 807 809 813
f 808 812 814
f 808 814 810
f 811 815 816
f 811 816 812
f 813 818 817
f 813 814 818
f 811 817 815
f 811 813 817
f 812 816 818
f 812 818 814
f 815 819 820
f 815 820 816
f 817 822 821
f 817 818 822
f 815 821 819
f 815 817 821
f 816 820 822
f 816 822 818
f 823 827 828
f 823 828 824
f 825 830 829
f 825 826 830
f 823 829 827
f 823 825 829
f 824 828 830
f 824 830 826
f 827 831 832
f 827 832 828
f 829 834 833
f 829 830 834
f 827 833 831
f 827 829 833
f 828 832 834
f 828 834 830
f 831 835 836
f 831 836 832
f 833 838 837
f 833 834 838
f 831 837 835
f 831 833 837
f 832 836 838
f 832 838 834
f 835 839 840
f 835 840 836
f 837 842 841
f 837 838 842
f 835 841 839
f 835 837 841
f 836 840 842
f 836 842 838
f 839 843 844
f 839 844 840
f 841 846 845
f 841 842 846
f 839 845 843
f 839 841 845
f 840 844 846
f 840 846 842
f 843 847 848
f 843 848 844
f 845 850 849
f 845 846 850
f 843 849 847
f 843 845 849
f 844 848 850
f 844 850 846
f 847 851 852
f 847 852 848
f 849 854 853
f 849 850 854
f 847 853 851
f 847 849 853
f 848 852 854
f 848 854 850
f 851 855 856
f 851 856 852
f 853 858 857
f 853 854 858
f 851 857 855
f 851 853 857
f 852 856 858
f 852 858 854
f 855 859 860
f 855 860 856
f 857 862 861
f 857 858 862
f 855 861 859
f 855 857 861
f 856 860 862
f 856 862 858
f 859 863 864
f 859 864 860
f 861 866 865
f 861 862 866
f 859 865 863
f 859 861 865
f 860 864 866
f 860 866 862
f 863 867 868
f 863 868 864
f 865 870 869
f 865 866 870
f 863 869 867
f 863 865 869
f 864 868 870
f 864 870 866
f 867 871 872
f 867 872 868
f 869 874 873
f 869 870 874
f 867 873 871
f 867 869 873
f 868 872 874
f 868 874 870
f 871 875 876
f 871 876 872
f 873 878 877
f 873 874 878
f 871 877 875
f 871 873 877
f 872 876 878
f 872 878 874
f 875 879 880
f 875 880 876
f 877 882 881
f 877 878 882
f 875 881 879
f 875 877 881
f 876 880 882
f 876 882 878
f 883 887 888
f 883 888 884
f 885 890 889
f 885 886 890
f 883 889 887
f 883 885 889
f 884 888 890
f 884 890 886
f 887 891 892
f 887 892 888
f 889 894 893
f 889 890 894
f 887 893 891
f 887 889 893
f 888 892 894
f 888 894 890
f 891 895 896
f 891 896 892
f 893 898 897
f 893 894 898
f 891 897 895
f 891 893 897
f 892 896 898
f 892 898 894
f 895 899 900
f 895 900 896
f 897 902 901
f 897 898 902
f 895 901 899
f 895 897 901
f 896 900 902
f 896 902 898
f 899 903 904
f 899 904 900
f 901 906 905
f 901 902 906
f 899 905 903
f 899 901 905
f 900 904 906
f 900 906 902
f 903 907 908
f 903 908 904
f 905 910 909
f 905 906 910
f 903 909 907
f 903 905 909
f 904 908 910
f 904 910 906
f 907 911 912
f 907 912 908
f 909 914 913
f 909 910 914
f 907 913 911
f 907 909 913
f 908 912 914
f 908 914 910
f 911 915 916
f 911 916 912
f 913 918 917
f 913 914 918
f 911 917 915
f 911 913 917
f 912 916 918
f 912 918 914
f 915 919 920
f 915 920 916
f 917 922 921
f 917 918 922
f 915 921 919
f 915 917 921
f 916 920 922
f 916 922 918
f 919 923 924
f 919 924 920
f 921 926 925
f 921 922 926
f 919 925 923
f 919 921 925
f 920 924 926
f 920 926 922
f 923 927 928
f 923 928 924
f 925 930 929
f 925 926 930
f 923 929 927
f 923 925 929
f 924 928 930
f 924 930 926
f 927 931 932
f 927 932 928
f 929 934 933
f 929 930 934
f 927 933 931
f 927 929 933
f 928 932 934
f 928 934 930
f 931 935 936
f 931 936 932
f 933 938 937
f 933 934 938
f 931 937 935
f 931 933 937
f 932 936 938
f 932 938 934
f 935 939 940
f 935 940 936
f 937 942 941
f 937 938 942
f 935 941 939
f 935 937 941
f 936 940 942
f 936 942 938
f 943 947 948
f 943 948 944
f 945 950 949
f 945 946 950
f 943 949 947
f 943 945 949
f 944 948 950
f 944 950 946
f 947 951 952
f 947 952 948
f 949 954 953
f 949 950 954
f 947 953 951
f 947 949 953
f 948 952 954
f 948 954 950
f 951 955 956
f 951 956 952
f 953 958 957
f 953 954 958
f 951 957 955
f 951 953 957
f 952 956 958
f 952 958 954
f 955 959 960
f 955 960 956
f 957 962 961
f 957 958 962
f 955 961 959
f 955 957 961
f 956 960 962
f 956 962 958
f 959 963 964
f 959 964 960
f 961 966 965
f 961 962 966
f 959 965 963
f 959 961 965
f 960 964 966
f 960 966 962
f 963 967 968
f 963 968 964
f 965 970 969
f 965 966 970
f 963 969 967
f 963 965 969
f 964 968 970
f 964 970 966
f 967 971 972
f 967 972 968
f 969 974 973
f 969 970 974
f 967 973 971
f 967 969 973
f 968 972 974
f 968 974 970
f 971 975 976
f 971 976 972
f 973 978 977
f 973 974 978
f 971 977 975
f 971 973 977
f 972 976 978
f 972 978 974
f 975 979 980
f 975 980 976
f 977 982 981
f 977 978 982
f 975 981 979
f 975 977 981
f 976 980 982
f 976 982 978
f 979 983 984
f 979 984 980
f 981 986 985
f 981 982 986
f 979 985 983
f 979 981 985
f 980 984 986
f 980 986 982
f 983 987 988
f 983 988 984
f 985 990 989
f 985 986 990
f 983 989 987
f 983 985 989
f 984 988 990
f 984 990 986
f 987 991 992
f 987 992 988
f 989 994 993
f 989 990 994
f 987 993 991
f 987 989 993
f 988 992 994
f 988 994 990
f 991 995 996
f 991 996 992
f 993 998 997
f 993 994 998
f 991 997 995
f 991 993 997
f 992 996 998
f 992 998 994
f 995 999 1000
f 995 1000 996
f 997 1002 1001
f 997 998 1002
f 995 1001 999
f 995 997 1001
f 996 1000 1002
f 996 1002 998
f 1003 1007 1008
f 1003 1008 1004
f 1005 1010 1009
f 1005 1006 1010
f 1003 1009 1007
f 1003 1005 1009
f 1004 1008 1010
f 1004 1010 1006
f 1007 1011 1012
f 1007 1012 1008
f 1009 1014 1013
f 1009 1010 1014
f 1007 1013 1011
f 1007 1009 1013
f 1008 1012 1014
f 1008 1014 1010
f 1011 1015 1016
f 1011 1016 1012
f 1013 1018 1017
f 1013 1014 1018
f 1011 1017 1015
f 1011 1013 1017
f 1012 1016 1018
f 1012 1018 1014
f 1015 1019 1020
f 1015 1020 1016
f 1017 1022 1021
f 1017 1018 1022
f 1015 1021 1019
f 1015 1017 1021
f 1016 1020 1022
f 1016 1022 1018
f 1019 1023 1024
f 1019 1024 1020
f 1021 1026 1025
f 1021 1022 1026
f 1019 1025 1023
f 1019 1021 1025
f 1020 1024 1026
f 1020 1026 1022
f 1023 1027 1028
f 1023 1028 1024
f 1025 1030 1029
f 1025 1026 1030
f 1023 1029 1027
f 1023 1025 1029
f 1024 1028 1030
f 1024 1030 1026
f 1027 1031 1032
f 1027 1032 1028
f 1029 1034 1033
f 1029 1030 1034
f 1027 1033 1031
f 1027 1029 1033
f 1028 1032 1034
f 1028 1034 1030
f 1031 1035 1036
f 1031 1036 1032
f 1033 1038 1037
f 1033 1034 1038
f 1031 1037 1035
f 1031 1033 1037
f 1032 1036 1038
f 1032 1038 1034
f 1035 1039 1040
f 1035 1040 1036
f 1037 1042 1041
f 1037 1038 1042
f 1035 1041 1039
f 1035 1037 1041
f 1036 1040 1042
f 1036 1042 1038
f 1039 1043 1044
f 1039 1044 1040
f 1041 1046 1045
f 1041 1042 1046
f 1039 1045 1043
f 1039 1041 1045
f 1040 1044 1046
f 1040 1046 1042
f 1043 1047 1048
f 1043 1048 1044
f 1045 1050 1049
f 1045 1046 1050
f 1043 1049 1047
f 1043 1045 1049
f 1044 1048 1050
f 1044 1050 1046
f 1047 1051 1052
f 1047 1052 1048
f 1049 1054 1053
f 1049 1050 1054
f 1047 1053 1051
f 1047 1049 1053
f 1048 1052 1054
f 1048 1054 1050
f 1051 1055 1056
f 1051 1056 1052
f 1053 1058 1057
f 1053 1054 1058
f 1051 1057 1055
f 1051 1053 1057
f 1052 1056 1058
f 1052 1058 1054
f 1055 1059 1060
f 1055 1060 1056
f 1057 1062 1061
f 1057 1058 1062
f 1055 1061 1059
f 1055 1057 1061
f 1056 1060 1062
f 1056 1062 1058
f 1063 1067 1068
f 1063 1068 1064
f 1065 1070 1069
f 1065 1066 1070
f 1063 1069 1067
f 1063 1065 1069
f 1064 1068 1070
f 1064 1070 1066
f 1067 1071 1072
f 1067 1072 1068
f 1069 1074 1073
f 1069 1070 1074
f 1067 1073 1071
f 1067 1069 1073
f 1068 1072 1074
f 1068 1074 1070
f 1071 1075 1076
f 1071 1076 1072
f 1073 1078 1077
f 1073 1074 1078
f 1071 1077 1075
f 1071 1073 1077
f 1072 1076 1078
f 1072 1078 1074
f 1075 1079 1080
f 1075 1080 1076
f 1077 1082 1081
f 1077 1078 1082
f 1075 1081 1079
f 1075 1077 1081
f 1076 1080 1082
f 1076 1082 1078
f 1079 1083 1084
f 1079 1084 1080
f 1081 1086 1085
f 1081 1082 1086
f 1079 1085 1083
f 1079 1081 1085
f 1080 1084 1086
f 1080 1086 1082
f 1083 1087 1088
f 1083 1088 1084
f 1085 1090 1089
f 1085 1086 1090
f 1083 1089 1087
f 1083 1085 1089
f 1084 1088 1090
f 1084 1090 1086
f 1087 1091 1092
f 1087 1092 1088
f 1089 1094 1093
f 1089 1090 1094
f 1087 1093 1091
f 1087 1089 1093
f 1088 1092 1094
f 1088 1094 1090
f 1091 1095 1096
f 1091 1096 1092
f 1093 1098 1097
f 1093 1094 1098
f 1091 1097 1095
f 1091 1093 1097
f 1092 1096 1098
f 1092 1098 1094
f 1095 1099 1100
f 1095 1100 1096
f 1097 1102 1101
f 1097 1098 1102
f 1095 1101 1099
f 1095 1097 1101
f 1096 1100 1102
f 1096 1102 1098
f 1099 1103 1104
f 1099 1104 1100
f 1101 1106 1105
f 1101 1102 1106
f 1099 1105 1103
f 1099 1101 1105
f 1100 1104 1106
f 1100 1106 1102
f 1103 1107 1108
f 1103 1108 1104
f 1105 1110 1109
f 1105 1106 1110
f 1103 1109 1107
f 1103 1105 1109
f 1104 1108 1110
f 1104 1110 1106
f 1107 1111 1112
f 1107 1112 1108
f 1109 1114 1113
f 1109 1110 1114
f 1107 1113 1111
f 1107 1109 1113
f 1108 1112 1114
f 1108 1114 1110
f 1111 1115 1116
f 1111 1116 1112
f 1113 1118 1117
f 1113 1114 1118
f 1111 1117 1115
f 1111 1113 1117
f 1112 1116 1118
f 1112 1118 1114
f 1115 1119 1120
f 1115 1120 1116
f 1117 1122 1121
f 1117 1118 1122
f 1115 1121 1119
f 1115 1117 1121
f 1116 1120 1122
f 1116 1122 1118
f 1123 1127 1128
f 1123 1128 1124
f 1125 1130 1129
f 1125 1126 1130
f 1123 1129 1127
f 1123 1125 1129
f 1124 1128 1130
f 1124 1130 1126
f 1127 1131 1132
f 1127 1132 1128
f 1129 1134 1133
f 1129 1130 1134
f 1127 1133 1131
f 1127 1129 1133
f 1128 1132 1134
f 1128 1134 1130
f 1131 1135 1136
f 1131 1136 1132
f 1133 1138 1137
f 1133 1134 1138
f 1131 1137 1135
f 1131 1133 1137
f 1132 1136 1138
f 1132 1138 1134
f 1135 1139 1140
f 1135 1140 1136
f 1137 1142 1141
f 1137 1138 1142
f 1135 1141 1139
f 1135 1137 1141
f 1136 1140 1142
f 1136 1142 1138
f 1139 1143 1144
f 1139 1144 1140
f 1141 1146 1145
f 1141 1142 1146
f 1139 1145 1143
f 1139 1141 1145
f 1140 1144 1146
f 1140 1146 1142
f 1143 1147 1148
f 1143 1148 1144
f 1145 1150 1149
f 1145 1146 1150
f 1143 1149 1147
f 1143 1145 1149
f 1144 1148 1150
f 1144 1150 1146
f 1147 1151 1152
f 1147 1152 1148
f 1149 1154 1153
f 1149 1150 1154
f 1147 1153 1151
f 1147 1149 1153
f 1148 1152 1154
f 1148 1154 1150
f 1151 1155 1156
f 1151 1156 1152
f 1153 1158 1157
f 1153 1154 1158
f 1151 1157 1155
f 1151 1153 1157
f 1152 1156 1158
f 1152 1158 1154
f 1155 1159 1160
f 1155 1160 1156
f 1157 1162 1161
f 1157 1158 1162
f 1155 1161 1159
f 1155 1157 1161
f 1156 1160 1162
f 1156 1162 1158
f 1159 1163 1164
f 1159 1164 1160
f 1161 1166 1165
f 1161 1162 1166
f 1159 1165 1163
f 1159 1161 1165
f 1160 1164 1166
f 1160 1166 1162
f 1163 1167 1168
f 1163 1168 1164
f 1165 1170 1169
f 1165 1166 1170
f 1163 1169 1167
f 1163 1165 1169
f 1164 1168 1170
f 1164 1170 1166
f 1167 1171 1172
f 1167 1172 1168
f 1169 1174 1173
f 1169 1170 1174
f 1167 1173 1171
f 1167 1169 1173
f 1168 1172 1174
f 1168 1174 1170
f 1171 1175 1176
f 1171 1176 1172
f 1173 1178 1177
f 1173 1174 1178
f 1171 1177 1175
f 1171 1173 1177
f 1172 1176 1178
f 1172 1178 1174
f 1175 1179 1180
f 1175 1180 1176
f 1177 1182 1181
f 1177 1178 1182
f 1175 1181 1179
f 1175 1177 1181
f 1176 1180 1182
f 1176 1182 1178
f 1183 1187 1188
f 1183 1188 1184
f 1185 1190 1189
f 1185 1186 1190
f 1183 1189 1187
f 1183 1185 1189
f 1184 1188 1190
f 1184 1190 1186
f 1187 1191 1192
f 1187 1192 1188
f 1189 1194 1193
f 1189 1190 1194
f 1187 1193 1191
f 1187 1189 1193
f 1188 1192 1194
f 1188 1194 1190
f 1191 1195 1196
f 1191 1196 1192
f 1193 1198 1197
f 1193 1194 1198
f 1191 1197 1195
f 1191 1193 1197
f 1192 1196 1198
f 1192 1198 1194
f 1195 1199 1200
f 1195 1200 1196
f 1197 1202 1201
f 1197 1198 1202
f 1195 1201 1199
f 1195 1197 1201
f 1196 1200 1202
f 1196 1202 1198
f 1199 1203 1204
f 1199 1204 1200
f 1201 1206 1205
f 1201 1202 1206
f 1199 1205 1203
f 1199 1201 1205
f 1200 1204 1206
f 1200 1206 1202
f 1203 1207 1208
f 1203 1208 1204
f 1205 1210 1209
f 1205 1206 1210
f 1203 1209 1207
f 1203 1205 1209
f 1204 1208 1210
f 1204 1210 1206
f 1207 1211 1212
f 1207 1212 1208
f 1209 1214 1213
f 1209 1210 1214
f 1207 1213 1211
f 1207 1209 1213
f 1208 1212 1214
f 1208 1214 1210
f 1211 1215 1216
f 1211 1216 1212
f 1213 1218 1217
f 1213 1214 1218
f 1211 1217 1215
f 1211 1213 1217
f 1212 1216 1218
f 1212 1218 1214
f 1219 1223 1224
f 1219 1224 1220
f 1221 1226 1225
f 1221 1222 1226
f 1219 1225 1223
f 1219 1221 1225
f 1220 1224 1226
f 1220 1226 1222
f 1223 1227 1228
f 1223 1228 1224
f 1225 1230 1229
f 1225 1226 1230
f 1223 1229 1227
f 1223 1225 1229
f 1224 1228 1230
f 1224 1230 1226
f 1227 1231 1232
f 1227 1232 1228
f 1229 1234 1233
f 1229 1230 1234
f 1227 1233 1231
f 1227 1229 1233
f 1228 1232 1234
f 1228 1234 1230
f 1231 1235 1236
f 1231 1236 1232
f 1233 1238 1237
f 1233 1234 1238
f 1231 1237 1235
f 1231 1233 1237
f 1232 1236 1238
f 1232 1238 1234
f 1235 1239 1240
f 1235 1240 1236
f 1237 1242 1241
f 1237 1238 1242
f 1235 1241 1239
f 1235 1237 1241
f 1236 1240 1242
f 1236 1242 1238
f 1239 1243 1244
f 1239 1244 1240
f 1241 1246 1245
f 1241 1242 1246
f 1239 1245 1243
f 1239 1241 1245
f 1240 1244 1246
f 1240 1246 1242
f 1243 1247 1248
f 1243 1248 1244
f 1245 1250 1249
f 1245 1246 1250
f 1243 1249 1247
f 1243 1245 1249
f 1244 1248 1250
f 1244 1250 1246
f 1247 1251 1252
f 1247 1252 1248
f 1249 1254 1253
f 1249 1250 1254
f 1247 1253 1251
f 1247 1249 1253
f 1248 1252 1254
f 1248 1254 1250
f 1255 1259 1260
f 1255 1260 1256
f 1257 1262 1261
f 1257 1258 1262
f 1255 1261 1259
f 1255 1257 1261
f 1256 1260 1262
f 1256 1262 1258
f 1259 1263 1264
f 1259 1264 1260
f 1261 1266 1265
f 1261 1262 1266
f 1259 1265 1263
f 1259 1261 1265
f 1260 1264 1266
f 1260 1266 1262
f 1263 1267 1268
f 1263 1268 1264
f 1265 1270 1269
f 1265 1266 1270
f 1263 1269 1267
f 1263 1265 1269
f 1264 1268 1270
f 1264 1270 1266
f 1267 1271 1272
f 1267 1272 1268
f 1269 1274 1273
f 1269 1270 1274
f 1267 1273 1271
f 1267 1269 1273
f 1268 1272 1274
f 1268 1274 1270
f 1271 1275 1276
f 1271 1276 1272
f 1273 1278 1277
f 1273 1274 1278
f 1271 1277 1275
f 1271 1273 1277
f 1272 1276 1278
f 1272 1278 1274
f 1275 1279 1280
f 1275 1280 1276
f 1277 1282 1281
f 1277 1278 1282
f 1275 1281 1279
f 1275 1277 1281
f 1276 1280 1282
f 1276 1282 1278
f 1279 1283 1284
f 1279 1284 1280
f 1281 1286 1285
f 1281 1282 1286
f 1279 1285 1283
f 1279 1281 1285
f 1280 1284 1286
f 1280 1286 1282
f 1283 1287 1288
f 1283 1288 1284
f 1285 1290 1289
f 1285 1286 1290
f 1283 1289 1287
f 1283 1285 1289
f 1284 1288 1290
f 1284 1290 1286
f 1291 1295 1296
f 1291 1296 1292
f 1293 1298 1297
f 1293 1294 1298
f 1291 1297 1295
f 1291 1293 1297
f 1292 1296 1298
f 1292 1298 1294
f 1295 1299 1300
f 1295 1300 1296
f 1297 1302 1301
f 1297 1298 1302
f 1295 1301 1299
f 1295 1297 1301
f 1296 1300 1302
f 1296 1302 1298
f 1299 1303 1304
f 1299 1304 1300
f 1301 1306 1305
f 1301 1302 1306
f 1299 1305 1303
f 1299 1301 1305
f 1300 1304 1306
f 1300 1306 1302
f 1303 1307 1308
f 1303 1308 1304
f 1305 1310 1309
f 1305 1306 1310
f 1303 1309 1307
f 1303 1305 1309
f 1304 1308 1310
f 1304 1310 1306
f 1307 1311 1312
f 1307 1312 1308
f 1309 1314 1313
f 1309 1310 1314
f 1307 1313 1311
f 1307 1309 1313
f 1308 1312 1314
f 1308 1314 1310
f 1311 1315 1316
f 1311 1316 1312
f 1313 1318 1317
f 1313 1314 1318
f 1311 1317 1315
f 1311 1313 1317
f 1312 1316 1318
f 1312 1318 1314
f 1315 1319 1320
f 1315 1320 1316
f 1317 1322 1321
f 1317 1318 1322
f 1315 1321 1319
f 1315 1317 1321
f 1316 1320 1322
f 1316 1322 1318
f 1319 1323 1324
f 1319 1324 1320
f 1321 1326 1325
f 1321 1322 1326
f 1319 1325 1323
f 1319 1321 1325
f 1320 1324 1326
f 1320 1326 1322
f 1327 1331 1332
f 1327 1332 1328
f 1329 1334 1333
f 1329 1330 1334
f 1327 1333 1331
f 1327 1329 1333
f 1328 1332 1334
f 1328 1334 1330
f 1331 1335 1336
f 1331 1336 1332
f 1333 1338 1337
f 1333 1334 1338
f 1331 1337 1335
f 1331 1333 1337
f 1332 1336 1338
f 1332 1338 1334
f 1335 1339 1340
f 1335 1340 1336
f 1337 1342 1341
f 1337 1338 1342
f 1335 1341 1339
f 1335 1337 1341
f 1336 1340 1342
f 1336 1342 1338
f 1339 1343 1344
f 1339 1344 1340
f 1341 1346 1345
f 1341 1342 1346
f 1339 1345 1343
f 1339 1341 1345
f 1340 1344 1346
f 1340 1346 1342
f 1343 1347 1348
f 1343 1348 1344
f 1345 1350 1349
f 1345 1346 1350
f 1343 1349 1347
f 1343 1345 1349
f 1344 1348 1350
f 1344 1350 1346
f 1347 1351 1352
f 1347 1352 1348
f 1349 1354 1353
f 1349 1350 1354
f 1347 1353 1351
f 1347 1349 1353
f 1348 1352 1354
f 1348 1354 1350
f 1351 1355 1356
f 1351 1356 1352
f 1353 1358 1357
f 1353 1354 1358
f 1351 1357 1355
f 1351 1353 1357
f 1352 1356 1358
f 1352 1358 1354
f 1355 1359 1360
f 1355 1360 1356
f 1357 1362 1361
f 1357 1358 1362
f 1355 1361 1359
f 1355 1357 1361
f 1356 1360 1362
f 1356 1362 1358
f 1363 1367 1368
f 1363 1368 1364
f 1365 1370 1369
f 1365 1366 1370
f 1363 1369 1367
f 1363 1365 1369
f 1364 1368 1370
f 1364 1370 1366
f 1367 1371 1372
f 1367 1372 1368
f 1369 1374 1373
f 1369 1370 1374
f 1367 1373 1371
f 1367 1369 1373
f 1368 1372 1374
f 1368 1374 1370
f 1371 1375 1376
f 1371 1376 1372
f 1373 1378 1377
f 1373 1374 1378
f 1371 1377 1375
f 1371 1373 1377
f 1372 1376 1378
f 1372 1378 1374
f 1375 1379 1380
f 1375 1380 1376
f 1377 1382 1381
f 1377 1378 1382
f 1375 1381 1379
f 1375 1377 1381
f 1376 1380 1382
f 1376 1382 1378
f 1379 1383 1384
f 1379 1384 1380
f 1381 1386 1385
f 1381 1382 1386
f 1379 1385 1383
f 1379 1381 1385
f 1380 1384 1386
f 1380 1386 1382
f 1383 1387 1388
f 1383 1388 1384
f 1385 1390 1389
f 1385 1386 1390
f 1383 1389 1387
f 1383 1385 1389
f 1384 1388 1390
f 1384 1390 1386
f 1387 1391 1392
f 1387 1392 1388
f 1389 1394 1393
f 1389 1390 1394
f 1387 1393 1391
f 1387 1389 1393
f 1388 1392 1394
f 1388 1394 1390
f 1391 1395 1396
f 1391 1396 1392
f 1393 1398 1397
f 1393 1394 1398
f 1391 1397 1395
f 1391 1393 1397
f 1392 1396 1398
f 1392 1398 1394
f 1399 1403 1404
f 1399 1404 1400
f 1401 1406 1405
f 1401 1402 1406
f 1399 1405 1403
f 1399 1401 1405
f 1400 1404 1406
f 1400 1406 1402
f 1403 1407 1408
f 1403 1408 1404
f 1405 1410 1409
f 1405 1406 1410
f 1403 1409 1407
f 1403 1405 1409
f 1404 1408 1410
f 1404 1410 1406
f 1407 1411 1412
f 1407 1412 1408
f 1409 1414 1413
f 1409 1410 1414
f 1407 1413 1411
f 1407 1409 1413
f 1408 1412 1414
f 1408 1414 1410
f 1411 1415 1416
f 1411 1416 1412
f 1413 1418 1417
f 1413 1414 1418
f 1411 1417 1415
f 1411 1413 1417
f 1412 1416 1418
f 1412 1418 1414
f 1415 1419 1420
f 1415 1420 1416
f 1417 1422 1421
f 1417 1418 1422
f 1415 1421 1419
f 1415 1417 1421
f 1416 1420 1422
f 1416 1422 1418
f 1419 1423 1424
f 1419 1424 1420
f 1421 1426 1425
f 1421 1422 1426
f 1419 1425 1423
f 1419 1421 1425
f 1420 1424 1426
f 1420 1426 1422
f 1423 1427 1428
f 1423 1428 1424
f 1425 1430 1429
f 1425 1426 1430
f 1423 1429 1427
f 1423 1425 1429
f 1424 1428 1430
f 1424 1430 1426
f 1427 1431 1432
f 1427 1432 1428
f 1429 1434 1433
f 1429 1430 1434
f 1427 1433 1431
f 1427 1429 1433
f 1428 1432 1434
f 1428 1434 1430
f 1435 1439 1440
f 1435 1440 1436
f 1437 1442 1441
f 1437 1438 1442
f 1435 1441 1439
f 1435 1437 1441
f 1436 1440 1442
f 1436 1442 1438
f 1439 1443 1444
f 1439 1444 1440
f 1441 1446 1445
f 1441 1442 1446
f 1439 1445 1443
f 1439 1441 1445
f 1440 1444 1446
f 1440 1446 1442
f 1443 1447 1448
f 1443 1448 1444
f 1445 1450 1449
f 1445 1446 1450
f 1443 1449 1447
f 1443 1445 1449
f 1444 1448 1450
f 1444 1450 1446
f 1447 1451 1452
f 1447 1452 1448
f 1449 1454 1453
f 1449 1450 1454
f 1447 1453 1451
f 1447 1449 1453
f 1448 1452 1454
f 1448 1454 1450
f 1451 1455 1456
f 1451 1456 1452
f 1453 1458 1457
f 1453 1454 1458
f 1451 1457 1455
f 1451 1453 1457
f 1452 1456 1458
f 1452 1458 1454
f 1455 1459 1460
f 1455 1460 1456
f 1457 1462 1461
f 1457 1458 1462
f 1455 1461 1459
f 1455 1457 1461
f 1456 1460 1462
f 1456 1462 1458
f 1459 1463 1464
f 1459 1464 1460
f 1461 1466 1465
f 1461 1462 1466
f 1459 1465 1463
f 1459 1461 1465
f 1460 1464 1466
f 1460 1466 1462
f 1463 1467 1468
f 1463 1468 1464
f 1465 1470 1469
f 1465 1466 1470
f 1463 1469 1467
f 1463 1465 1469
f 1464 1468 1470
f 1464 1470 1466
g pins
usemtl pins
f 137 138 150
f 137 150 149
f 138 139 151
f 138 151 150
f 139 140 152
f 139 152 151
f 140 141 153
f 140 153 152
f 141 142 154
f 141 154 153
f 142 143 155
f 142 155 154
f 143 144 156
f 143 156 155
f 144 145 157
f 144 157 156
f 145 146 158
f 145 158 157
f 146 147 159
f 146 159 158
f 147 148 160
f 147 160 159
f 148 137 149
f 148 149 160
f 161 138 137
f 162 149 150
f 161 139 138
f 162 150 151
f 161 140 139
f 162 151 152
f 161 141 140
f 162 152 153
f 161 142 141
f 162 153 154
f 161 143 142
f 162 154 155
f 161 144 143
f 162 155 156
f 161 145 144
f 162 156 157
f 161 146 145
f 162 157 158
f 161 147 146
f 162 158 159
f 161 148 147
f 162 159 160
f 161 137 148
f 162 160 149
f 197 198 210
f 197 210 209
f 198 199 211
f 198 211 210
f 199 200 212
f 199 212 211
f 200 201 213
f 200 213 212
f 201 202 214
f 201 214 213
f 202 203 215
f 202 215 214
f 203 204 216
f 203 216 215
f 204 205 217
f 204 217 216
f 205 206 218
f 205 218 217
f 206 207 219
f 206 219 218
f 207 208 220
f 207 220 219
f 208 197 209
f 208 209 220
f 221 198 197
f 222 209 210
f 221 199 198
f 222 210 211
f 221 200 199
f 222 211 212
f 221 201 200
f 222 212 213
f 221 202 201
f 222 213 214
f 221 203 202
f 222 214 215
f 221 204 203
f 222 215 216
f 221 205 204
f 222 216 217
f 221 206 205
f 222 217 218
f 221 207 206
f 222 218 219
f 221 208 207
f 222 219 220
f 221 197 208
f 222 220 209
f 257 258 270
f 257 270 269
f 258 259 271
f 258 271 270
f 259 260 272
f 259 272 271
f 260 261 273
f 260 273 272
f 261 262 274
f 261 274 273
f 262 263 275
f 262 275 274
f 263 264 276
f 263 276 275
f 264 265 277
f 264 277 276
f 265 266 278
f 265 278 277
f 266 267 279
f 266 279 278
f 267 268 280
f 267 280 279
f 268 257 269
f 268 269 280
f 281 258 257
f 282 269 270
f 281 259 258
f 282 270 271
f 281 260 259
f 282 271 272
f 281 261 260
f 282 272 273
f 281 262 261
f 282 273 274
f 281 263 262
f 282 274 275
f 281 264 263
f 282 275 276
f 281 265 264
f 282 276 277
f 281 266 265
f 282 277 278
f 281 267 266
f 282 278 279
f 281 268 267
f 282 279 280
f 281 257 268
f 282 280 269
f 317 318 330
f 317 330 329
f 318 319 331
f 318 331 330
f 319 320 332
f 319 332 331
f 320 321 333
f 320 333 332
f 321 322 334
f 321 334 333
f 322 323 335
f 322 335 334
f 323 324 336
f 323 336 335
f 324 325 337
f 324 337 336
f 325 326 338
f 325 338 337
f 326 327 339
f 326 339 338
f 327 328 340
f 327 340 339
f 328 317 329
f 328 329 340
f 341 318 317
f 342 329 330
f 341 319 318
f 342 330 331
f 341 320 319
f 342 331 332
f 341 321 320
f 342 332 333
f 341 322 321
f 342 333 334
f 341 323 322
f 342 334 335
f 341 324 323
f 342 335 336
f 341 325 324
f 342 336 337
f 341 326 325
f 342 337 338
f 341 327 326
f 342 338 339
f 341 328 327
f 342 339 340
f 341 317 328
f 342 340 329
f 377 378 390
f 377 390 389
f 378 379 391
f 378 391 390
f 379 380 392
f 379 392 391
f 380 381 393
f 380 393 392
f 381 382 394
f 381 394 393
f 382 383 395
f 382 395 394
f 383 384 396
f 383 396 395
f 384 385 397
f 384 397 396
f 385 386 398
f 385 398 397
f 386 387 399
f 386 399 398
f 387 388 400
f 387 400 399
f 388 377 389
f 388 389 400
f 401 378 377
f 402 389 390
f 401 379 378
f 402 390 391
f 401 380 379
f 402 391 392
f 401 381 380
f 402 392 393
f 401 382 381
f 402 393 394
f 401 383 382
f 402 394 395
f 401 384 383
f 402 395 396
f 401 385 384
f 402 396 397
f 401 386 385
f 402 397 398
f 401 387 386
f 402 398 399
f 401 388 387
f 402 399 400
f 401 377 388
f 402 400 389
f 437 438 450
f 437 450 449
f 438 439 451
f 438 451 450
f 439 440 452
f 439 452 451
f 440 441 453
f 440 453 452
f 441 442 454
f 441 454 453
f 442 443 455
f 442 455 454
f 443 444 456
f 443 456 455
f 444 445 457
f 444 457 456
f 445 446 458
f 445 458 457
f 446 447 459
f 446 459 458
f 447 448 460
f 447 460 459
f 448 437 449
f 448 449 460
f 461 438 437
f 462 449 450
f 461 439 438
f 462 450 451
f 461 440 439
f 462 451 452
f 461 441 440
f 462 452 453
f 461 442 441
f 462 453 454
f 461 443 442
f 462 454 455
f 461 444 443
f 462 455 456
f 461 445 444
f 462 456 457
f 461 446 445
f 462 457 458
f 461 447 446
f 462 458 459
f 461 448 447
f 462 459 460
f 461 437 448
f 462 460 449
f 497 498 510
f 497 510 509
f 498 499 511
f 498 511 510
f 499 500 512
f 499 512 511
f 500 501 513
f 500 513 512
f 501 502 514
f 501 514 513
f 502 503 515
f 502 515 514
f 503 504 516
f 503 516 515
f 504 505 517
f 504 517 516
f 505 506 518
f 505 518 517
f 506 507 519
f 506 519 518
f 507 508 520
f 507 520 519
f 508 497 509
f 508 509 520
f 521 498 497
f 522 509 510
f 521 499 498
f 522 510 511
f 521 500 499
f 522 511 512
f 521 501 500
f 522 512 513
f 521 502 501
f 522 513 514
f 521 503 502
f 522 514 515
f 521 504 503
f 522 515 516
f 521 505 504
f 522 516 517
f 521 506 505
f 522 517 518
f 521 507 506
f 522 518 519
f 521 508 507
f 522 519 520
f 521 497 508
f 522 520 509
f 557 558 570
f 557 570 569
f 558 559 571
f 558 571 570
f 559 560 572
f 559 572 571
f 560 561 573
f 560 573 572
f 561 562 574
f 561 574 573
f 562 563 575
f 562 575 574
f 563 564 576
f 563 576 575
f 564 565 577
f 564 577 576
f 565 566 578
f 565 578 577
f 566 567 579
f 566 579 578
f 567 568 580
f 567 580 579
f 568 557 569
f 568 569 580
f 581 558 557
f 582 569 570
f 581 559 558
f 582 570 571
f 581 560 559
f 582 571 572
f 581 561 560
f 582 572 573
f 581 562 561
f 582 573 574
f 581 563 562
f 582 574 575
f 581 564 563
f 582 575 576
f 581 565 564
f 582 576 577
f 581 566 565
f 582 577 578
f 581 567 566
f 582 578 579
f 581 568 567
f 582 579 580
f 581 557 568
f 582 580 569
f 617 618 630
f 617 630 629
f 618 619 631
f 618 631 630
f 619 620 632
f 619 632 631
f 620 621 633
f 620 633 632
f 621 622 634
f 621 634 633
f 622 623 635
f 622 635 634
f 623 624 636
f 623 636 635
f 624 625 637
f 624 637 636
f 625 626 638
f 625 638 637
f 626 627 639
f 626 639 638
f 627 628 640
f 627 640 639
f 628 617 629
f 628 629 640
f 641 618 617
f 642 629 630
f 641 619 618
f 642 630 631
f 641 620 619
f 642 631 632
f 641 621 620
f 642 632 633
f 641 622 621
f 642 633 634
f 641 623 622
f 642 634 635
f 641 624 623
f 642 635 636
f 641 625 624
f 642 636 637
f 641 626 625
f 642 637 638
f 641 627 626
f 642 638 639
f 641 628 627
f 642 639 640
f 641 617 628
f 642 640 629
f 677 678 690
f 677 690 689
f 678 679 691
f 678 691 690
f 679 680 692
f 679 692 691
f 680 681 693
f 680 693 692
f 681 682 694
f 681 694 693
f 682 683 695
f 682 695 694
f 683 684 696
f 683 696 695
f 684 685 697
f 684 697 696
f 685 686 698
f 685 698 697
f 686 687 699
f 686 699 698
f 687 688 700
f 687 700 699
f 688 677 689
f 688 689 700
f 701 678 677
f 702 689 690
f 701 679 678
f 702 690 691
f 701 680 679
f 702 691 692
f 701 681 680
f 702 692 693
f 701 682 681
f 702 693 694
f 701 683 682
f 702 694 695
f 701 684 683
f 702 695 696
f 701 685 684
f 702 696 697
f 701 686 685
f 702 697 698
f 701 687 686
f 702 698 699
f 701 688 687
f 702 699 700
f 701 677 688
f 702 700 689
