# TRUNC Arrowhead Element
# vertices=456 faces=848
mtllib trunc_materials.mtl
o trunc_model
v 0.0000 -2.5000 43.2000
v 0.0000 2.5000 43.2000
v 0.0000 2.5000 44.8000
v 0.0000 -2.5000 44.8000
v -3.5581 -2.5000 43.0532
v -3.5581 2.5000 43.0532
v -3.6899 2.5000 44.6478
v -3.6899 -2.5000 44.6478
v -7.7279 -2.5000 42.5032
v -7.7279 2.5000 42.5032
v -8.0141 2.5000 44.0774
v -8.0141 -2.5000 44.0774
v -12.5283 -2.5000 41.3435
v -12.5283 2.5000 41.3435
v -12.9923 2.5000 42.8747
v -12.9923 -2.5000 42.8747
v -17.8763 -2.5000 39.3278
v -17.8763 2.5000 39.3278
v -18.5384 2.5000 40.7844
v -18.5384 -2.5000 40.7844
v -23.5270 -2.5000 36.2315
v -23.5270 2.5000 36.2315
v -24.3983 2.5000 37.5734
v -24.3983 -2.5000 37.5734
v -29.0595 -2.5000 31.9654
v -29.0595 2.5000 31.9654
v -30.1357 2.5000 33.1493
v -30.1357 -2.5000 33.1493
v -33.9690 -2.5000 26.6899
v -33.9690 2.5000 26.6899
v -35.2271 2.5000 27.6784
v -35.2271 -2.5000 27.6784
v -37.8525 -2.5000 20.8189
v -37.8525 2.5000 20.8189
v -39.2545 2.5000 21.5900
v -39.2545 -2.5000 21.5900
v -40.5595 -2.5000 14.8718
v -40.5595 2.5000 14.8718
v -42.0617 2.5000 15.4226
v -42.0617 -2.5000 15.4226
v -42.1910 -2.5000 9.2820
v -42.1910 2.5000 9.2820
v -43.7537 2.5000 9.6258
v -43.7537 -2.5000 9.6258
v -42.9856 -2.5000 4.2986
v -42.9856 2.5000 4.2986
v -44.5777 2.5000 4.4578
v -44.5777 -2.5000 4.4578
v -43.2000 -2.5000 0.0000
v -43.2000 2.5000 0.0000
v -44.8000 2.5000 0.0000
v -44.8000 -2.5000 0.0000
v 0.0000 2.5000 43.2000
v 0.0000 -2.5000 43.2000
v 0.0000 -2.5000 44.8000
v 0.0000 2.5000 44.8000
v 3.5581 2.5000 43.0532
v 3.5581 -2.5000 43.0532
v 3.6899 -2.5000 44.6478
v 3.6899 2.5000 44.6478
v 7.7279 2.5000 42.5032
v 7.7279 -2.5000 42.5032
v 8.0141 -2.5000 44.0774
v 8.0141 2.5000 44.0774
v 12.5283 2.5000 41.3435
v 12.5283 -2.5000 41.3435
v 12.9923 -2.5000 42.8747
v 12.9923 2.5000 42.8747
v 17.8763 2.5000 39.3278
v 17.8763 -2.5000 39.3278
v 18.5384 -2.5000 40.7844
v 18.5384 2.5000 40.7844
v 23.5270 2.5000 36.2315
v 23.5270 -2.5000 36.2315
v 24.3983 -2.5000 37.5734
v 24.3983 2.5000 37.5734
v 29.0595 2.5000 31.9654
v 29.0595 -2.5000 31.9654
v 30.1357 -2.5000 33.1493
v 30.1357 2.5000 33.1493
v 33.9690 2.5000 26.6899
v 33.9690 -2.5000 26.6899
v 35.2271 -2.5000 27.6784
v 35.2271 2.5000 27.6784
v 37.8525 2.5000 20.8189
v 37.8525 -2.5000 20.8189
v 39.2545 -2.5000 21.5900
v 39.2545 2.5000 21.5900
v 40.5595 2.5000 14.8718
v 40.5595 -2.5000 14.8718
v 42.0617 -2.5000 15.4226
v 42.0617 2.5000 15.4226
v 42.1910 2.5000 9.2820
v 42.1910 -2.5000 9.2820
v 43.7537 -2.5000 9.6258
v 43.7537 2.5000 9.6258
v 42.9856 2.5000 4.2986
v 42.9856 -2.5000 4.2986
v 44.5777 -2.5000 4.4578
v 44.5777 2.5000 4.4578
v 43.2000 2.5000 0.0000
v 43.2000 -2.5000 0.0000
v 44.8000 -2.5000 0.0000
v 44.8000 2.5000 0.0000
v -43.2000 -2.5000 0.0000
v -43.2000 2.5000 0.0000
v -44.8000 2.5000 0.0000
v -44.8000 -2.5000 0.0000
v -42.9856 -2.5000 -4.2986
v -42.9856 2.5000 -4.2986
v -44.5777 2.5000 -4.4578
v -44.5777 -2.5000 -4.4578
v -42.1910 -2.5000 -9.2820
v -42.1910 2.5000 -9.2820
v -43.7537 2.5000 -9.6258
v -43.7537 -2.5000 -9.6258
v -40.5595 -2.5000 -14.8718
v -40.5595 2.5000 -14.8718
v -42.0617 2.5000 -15.4226
v -42.0617 -2.5000 -15.4226
v -37.8525 -2.5000 -20.8189
v -37.8525 2.5000 -20.8189
v -39.2545 2.5000 -21.5900
v -39.2545 -2.5000 -21.5900
v -33.9690 -2.5000 -26.6899
v -33.9690 2.5000 -26.6899
v -35.2271 2.5000 -27.6784
v -35.2271 -2.5000 -27.6784
v -29.0595 -2.5000 -31.9654
v -29.0595 2.5000 -31.9654
v -30.1357 2.5000 -33.1493
v -30.1357 -2.5000 -33.1493
v -23.5270 -2.5000 -36.2315
v -23.5270 2.5000 -36.2315
v -24.3983 2.5000 -37.5734
v -24.3983 -2.5000 -37.5734
v -17.8763 -2.5000 -39.3278
v -17.8763 2.5000 -39.3278
v -18.5384 2.5000 -40.7844
v -18.5384 -2.5000 -40.7844
v -12.5283 -2.5000 -41.3435
v -12.5283 2.5000 -41.3435
v -12.9923 2.5000 -42.8747
v -12.9923 -2.5000 -42.8747
v -7.7279 -2.5000 -42.5032
v -7.7279 2.5000 -42.5032
v -8.0141 2.5000 -44.0774
v -8.0141 -2.5000 -44.0774
v -3.5581 -2.5000 -43.0532
v -3.5581 2.5000 -43.0532
v -3.6899 2.5000 -44.6478
v -3.6899 -2.5000 -44.6478
v 0.0000 -2.5000 -43.2000
v 0.0000 2.5000 -43.2000
v 0.0000 2.5000 -44.8000
v 0.0000 -2.5000 -44.8000
v 43.2000 2.5000 0.0000
v 43.2000 -2.5000 0.0000
v 44.8000 -2.5000 0.0000
v 44.8000 2.5000 0.0000
v 42.9856 2.5000 -4.2986
v 42.9856 -2.5000 -4.2986
v 44.5777 -2.5000 -4.4578
v 44.5777 2.5000 -4.4578
v 42.1910 2.5000 -9.2820
v 42.1910 -2.5000 -9.2820
v 43.7537 -2.5000 -9.6258
v 43.7537 2.5000 -9.6258
v 40.5595 2.5000 -14.8718
v 40.5595 -2.5000 -14.8718
v 42.0617 -2.5000 -15.4226
v 42.0617 2.5000 -15.4226
v 37.8525 2.5000 -20.8189
v 37.8525 -2.5000 -20.8189
v 39.2545 -2.5000 -21.5900
v 39.2545 2.5000 -21.5900
v 33.9690 2.5000 -26.6899
v 33.9690 -2.5000 -26.6899
v 35.2271 -2.5000 -27.6784
v 35.2271 2.5000 -27.6784
v 29.0595 2.5000 -31.9654
v 29.0595 -2.5000 -31.9654
v 30.1357 -2.5000 -33.1493
v 30.1357 2.5000 -33.1493
v 23.5270 2.5000 -36.2315
v 23.5270 -2.5000 -36.2315
v 24.3983 -2.5000 -37.5734
v 24.3983 2.5000 -37.5734
v 17.8763 2.5000 -39.3278
v 17.8763 -2.5000 -39.3278
v 18.5384 -2.5000 -40.7844
v 18.5384 2.5000 -40.7844
v 12.5283 2.5000 -41.3435
v 12.5283 -2.5000 -41.3435
v 12.9923 -2.5000 -42.8747
v 12.9923 2.5000 -42.8747
v 7.7279 2.5000 -42.5032
v 7.7279 -2.5000 -42.5032
v 8.0141 -2.5000 -44.0774
v 8.0141 2.5000 -44.0774
v 3.5581 2.5000 -43.0532
v 3.5581 -2.5000 -43.0532
v 3.6899 -2.5000 -44.6478
v 3.6899 2.5000 -44.6478
v 0.0000 2.5000 -43.2000
v 0.0000 -2.5000 -43.2000
v 0.0000 -2.5000 -44.8000
v 0.0000 2.5000 -44.8000
v 0.0000 -3.0000 21.0000
v -0.5878 -3.0000 21.1910
v -0.9511 -3.0000 21.6910
v -0.9511 -3.0000 22.3090
v -0.5878 -3.0000 22.8090
v -0.0000 -3.0000 23.0000
v 0.5878 -3.0000 22.8090
v 0.9511 -3.0000 22.3090
v 0.9511 -3.0000 21.6910
v 0.5878 -3.0000 21.1910
v 0.0000 3.0000 21.0000
v -0.5878 3.0000 21.1910
v -0.9511 3.0000 21.6910
v -0.9511 3.0000 22.3090
v -0.5878 3.0000 22.8090
v -0.0000 3.0000 23.0000
v 0.5878 3.0000 22.8090
v 0.9511 3.0000 22.3090
v 0.9511 3.0000 21.6910
v 0.5878 3.0000 21.1910
v 0.0000 -3.0000 22.0000
v 0.0000 3.0000 22.0000
v 0.0000 3.0000 20.0000
v -1.0000 3.0000 20.2679
v -1.7321 3.0000 21.0000
v -2.0000 3.0000 22.0000
v -1.7321 3.0000 23.0000
v -1.0000 3.0000 23.7321
v -0.0000 3.0000 24.0000
v 1.0000 3.0000 23.7321
v 1.7321 3.0000 23.0000
v 2.0000 3.0000 22.0000
v 1.7321 3.0000 21.0000
v 1.0000 3.0000 20.2679
v 0.0000 5.0000 20.0000
v -1.0000 5.0000 20.2679
v -1.7321 5.0000 21.0000
v -2.0000 5.0000 22.0000
v -1.7321 5.0000 23.0000
v -1.0000 5.0000 23.7321
v -0.0000 5.0000 24.0000
v 1.0000 5.0000 23.7321
v 1.7321 5.0000 23.0000
v 2.0000 5.0000 22.0000
v 1.7321 5.0000 21.0000
v 1.0000 5.0000 20.2679
v 0.0000 3.0000 22.0000
v 0.0000 5.0000 22.0000
v 0.0000 -3.0000 23.8000
v -1.5588 -3.0000 22.9000
v -1.5588 -3.0000 21.1000
v -0.0000 -3.0000 20.2000
v 1.5588 -3.0000 21.1000
v 1.5588 -3.0000 22.9000
v 0.0000 -4.8000 23.8000
v -1.5588 -4.8000 22.9000
v -1.5588 -4.8000 21.1000
v -0.0000 -4.8000 20.2000
v 1.5588 -4.8000 21.1000
v 1.5588 -4.8000 22.9000
v 0.0000 -3.0000 22.0000
v 0.0000 -4.8000 22.0000
v 0.0000 -3.0000 -23.0000
v -0.5878 -3.0000 -22.8090
v -0.9511 -3.0000 -22.3090
v -0.9511 -3.0000 -21.6910
v -0.5878 -3.0000 -21.1910
v -0.0000 -3.0000 -21.0000
v 0.5878 -3.0000 -21.1910
v 0.9511 -3.0000 -21.6910
v 0.9511 -3.0000 -22.3090
v 0.5878 -3.0000 -22.8090
v 0.0000 3.0000 -23.0000
v -0.5878 3.0000 -22.8090
v -0.9511 3.0000 -22.3090
v -0.9511 3.0000 -21.6910
v -0.5878 3.0000 -21.1910
v -0.0000 3.0000 -21.0000
v 0.5878 3.0000 -21.1910
v 0.9511 3.0000 -21.6910
v 0.9511 3.0000 -22.3090
v 0.5878 3.0000 -22.8090
v 0.0000 -3.0000 -22.0000
v 0.0000 3.0000 -22.0000
v 0.0000 3.0000 -24.0000
v -1.0000 3.0000 -23.7321
v -1.7321 3.0000 -23.0000
v -2.0000 3.0000 -22.0000
v -1.7321 3.0000 -21.0000
v -1.0000 3.0000 -20.2679
v -0.0000 3.0000 -20.0000
v 1.0000 3.0000 -20.2679
v 1.7321 3.0000 -21.0000
v 2.0000 3.0000 -22.0000
v 1.7321 3.0000 -23.0000
v 1.0000 3.0000 -23.7321
v 0.0000 5.0000 -24.0000
v -1.0000 5.0000 -23.7321
v -1.7321 5.0000 -23.0000
v -2.0000 5.0000 -22.0000
v -1.7321 5.0000 -21.0000
v -1.0000 5.0000 -20.2679
v -0.0000 5.0000 -20.0000
v 1.0000 5.0000 -20.2679
v 1.7321 5.0000 -21.0000
v 2.0000 5.0000 -22.0000
v 1.7321 5.0000 -23.0000
v 1.0000 5.0000 -23.7321
v 0.0000 3.0000 -22.0000
v 0.0000 5.0000 -22.0000
v 0.0000 -3.0000 -20.2000
v -1.5588 -3.0000 -21.1000
v -1.5588 -3.0000 -22.9000
v -0.0000 -3.0000 -23.8000
v 1.5588 -3.0000 -22.9000
v 1.5588 -3.0000 -21.1000
v 0.0000 -4.8000 -20.2000
v -1.5588 -4.8000 -21.1000
v -1.5588 -4.8000 -22.9000
v -0.0000 -4.8000 -23.8000
v 1.5588 -4.8000 -22.9000
v 1.5588 -4.8000 -21.1000
v 0.0000 -3.0000 -22.0000
v 0.0000 -4.8000 -22.0000
v -20.0000 -3.0000 -1.0000
v -20.5878 -3.0000 -0.8090
v -20.9511 -3.0000 -0.3090
v -20.9511 -3.0000 0.3090
v -20.5878 -3.0000 0.8090
v -20.0000 -3.0000 1.0000
v -19.4122 -3.0000 0.8090
v -19.0489 -3.0000 0.3090
v -19.0489 -3.0000 -0.3090
v -19.4122 -3.0000 -0.8090
v -20.0000 3.0000 -1.0000
v -20.5878 3.0000 -0.8090
v -20.9511 3.0000 -0.3090
v -20.9511 3.0000 0.3090
v -20.5878 3.0000 0.8090
v -20.0000 3.0000 1.0000
v -19.4122 3.0000 0.8090
v -19.0489 3.0000 0.3090
v -19.0489 3.0000 -0.3090
v -19.4122 3.0000 -0.8090
v -20.0000 -3.0000 0.0000
v -20.0000 3.0000 0.0000
v -20.0000 3.0000 -2.0000
v -21.0000 3.0000 -1.7321
v -21.7321 3.0000 -1.0000
v -22.0000 3.0000 -0.0000
v -21.7321 3.0000 1.0000
v -21.0000 3.0000 1.7321
v -20.0000 3.0000 2.0000
v -19.0000 3.0000 1.7321
v -18.2679 3.0000 1.0000
v -18.0000 3.0000 0.0000
v -18.2679 3.0000 -1.0000
v -19.0000 3.0000 -1.7321
v -20.0000 5.0000 -2.0000
v -21.0000 5.0000 -1.7321
v -21.7321 5.0000 -1.0000
v -22.0000 5.0000 -0.0000
v -21.7321 5.0000 1.0000
v -21.0000 5.0000 1.7321
v -20.0000 5.0000 2.0000
v -19.0000 5.0000 1.7321
v -18.2679 5.0000 1.0000
v -18.0000 5.0000 0.0000
v -18.2679 5.0000 -1.0000
v -19.0000 5.0000 -1.7321
v -20.0000 3.0000 0.0000
v -20.0000 5.0000 0.0000
v -20.0000 -3.0000 1.8000
v -21.5588 -3.0000 0.9000
v -21.5588 -3.0000 -0.9000
v -20.0000 -3.0000 -1.8000
v -18.4412 -3.0000 -0.9000
v -18.4412 -3.0000 0.9000
v -20.0000 -4.8000 1.8000
v -21.5588 -4.8000 0.9000
v -21.5588 -4.8000 -0.9000
v -20.0000 -4.8000 -1.8000
v -18.4412 -4.8000 -0.9000
v -18.4412 -4.8000 0.9000
v -20.0000 -3.0000 0.0000
v -20.0000 -4.8000 0.0000
v 20.0000 -3.0000 -1.0000
v 19.4122 -3.0000 -0.8090
v 19.0489 -3.0000 -0.3090
v 19.0489 -3.0000 0.3090
v 19.4122 -3.0000 0.8090
v 20.0000 -3.0000 1.0000
v 20.5878 -3.0000 0.8090
v 20.9511 -3.0000 0.3090
v 20.9511 -3.0000 -0.3090
v 20.5878 -3.0000 -0.8090
v 20.0000 3.0000 -1.0000
v 19.4122 3.0000 -0.8090
v 19.0489 3.0000 -0.3090
v 19.0489 3.0000 0.3090
v 19.4122 3.0000 0.8090
v 20.0000 3.0000 1.0000
v 20.5878 3.0000 0.8090
v 20.9511 3.0000 0.3090
v 20.9511 3.0000 -0.3090
v 20.5878 3.0000 -0.8090
v 20.0000 -3.0000 0.0000
v 20.0000 3.0000 0.0000
v 20.0000 3.0000 -2.0000
v 19.0000 3.0000 -1.7321
v 18.2679 3.0000 -1.0000
v 18.0000 3.0000 -0.0000
v 18.2679 3.0000 1.0000
v 19.0000 3.0000 1.7321
v 20.0000 3.0000 2.0000
v 21.0000 3.0000 1.7321
v 21.7321 3.0000 1.0000
v 22.0000 3.0000 0.0000
v 21.7321 3.0000 -1.0000
v 21.0000 3.0000 -1.7321
v 20.0000 5.0000 -2.0000
v 19.0000 5.0000 -1.7321
v 18.2679 5.0000 -1.0000
v 18.0000 5.0000 -0.0000
v 18.2679 5.0000 1.0000
v 19.0000 5.0000 1.7321
v 20.0000 5.0000 2.0000
v 21.0000 5.0000 1.7321
v 21.7321 5.0000 1.0000
v 22.0000 5.0000 0.0000
v 21.7321 5.0000 -1.0000
v 21.0000 5.0000 -1.7321
v 20.0000 3.0000 0.0000
v 20.0000 5.0000 0.0000
v 20.0000 -3.0000 1.8000
v 18.4412 -3.0000 0.9000
v 18.4412 -3.0000 -0.9000
v 20.0000 -3.0000 -1.8000
v 21.5588 -3.0000 -0.9000
v 21.5588 -3.0000 0.9000
v 20.0000 -4.8000 1.8000
v 18.4412 -4.8000 0.9000
v 18.4412 -4.8000 -0.9000
v 20.0000 -4.8000 -1.8000
v 21.5588 -4.8000 -0.9000
v 21.5588 -4.8000 0.9000
v 20.0000 -3.0000 0.0000
v 20.0000 -4.8000 0.0000
g links
usemtl links
f 1 5 6
f 1 6 2
f 2 6 7
f 2 7 3
f 3 7 8
f 3 8 4
f 4 8 5
f 4 5 1
f 5 9 10
f 5 10 6
f 6 10 11
f 6 11 7
f 7 11 12
f 7 12 8
f 8 12 9
f 8 9 5
f 9 13 14
f 9 14 10
f 10 14 15
f 10 15 11
f 11 15 16
f 11 16 12
f 12 16 13
f 12 13 9
f 13 17 18
f 13 18 14
f 14 18 19
f 14 19 15
f 15 19 20
f 15 20 16
f 16 20 17
f 16 17 13
f 17 21 22
f 17 22 18
f 18 22 23
f 18 23 19
f 19 23 24
f 19 24 20
f 20 24 21
f 20 21 17
f 21 25 26
f 21 26 22
f 22 26 27
f 22 27 23
f 23 27 28
f 23 28 24
f 24 28 25
f 24 25 21
f 25 29 30
f 25 30 26
f 26 30 31
f 26 31 27
f 27 31 32
f 27 32 28
f 28 32 29
f 28 29 25
f 29 33 34
f 29 34 30
f 30 34 35
f 30 35 31
f 31 35 36
f 31 36 32
f 32 36 33
f 32 33 29
f 33 37 38
f 33 38 34
f 34 38 39
f 34 39 35
f 35 39 40
f 35 40 36
f 36 40 37
f 36 37 33
f 37 41 42
f 37 42 38
f 38 42 43
f 38 43 39
f 39 43 44
f 39 44 40
f 40 44 41
f 40 41 37
f 41 45 46
f 41 46 42
f 42 46 47
f 42 47 43
f 43 47 48
f 43 48 44
f 44 48 45
f 44 45 41
f 45 49 50
f 45 50 46
f 46 50 51
f 46 51 47
f 47 51 52
f 47 52 48
f 48 52 49
f 48 49 45
f 1 4 3
f 1 3 2
f 49 50 51
f 49 51 52
f 53 57 58
f 53 58 54
f 54 58 59
f 54 59 55
f 55 59 60
f 55 60 56
f 56 60 57
f 56 57 53
f 57 61 62
f 57 62 58
f 58 62 63
f 58 63 59
f 59 63 64
f 59 64 60
f 60 64 61
f 60 61 57
f 61 65 66
f 61 66 62
f 62 66 67
f 62 67 63
f 63 67 68
f 63 68 64
f 64 68 65
f 64 65 61
f 65 69 70
f 65 70 66
f 66 70 71
f 66 71 67
f 67 71 72
f 67 72 68
f 68 72 69
f 68 69 65
f 69 73 74
f 69 74 70
f 70 74 75
f 70 75 71
f 71 75 76
f 71 76 72
f 72 76 73
f 72 73 69
f 73 77 78
f 73 78 74
f 74 78 79
f 74 79 75
f 75 79 80
f 75 80 76
f 76 80 77
f 76 77 73
f 77 81 82
f 77 82 78
f 78 82 83
f 78 83 79
f 79 83 84
f 79 84 80
f 80 84 81
f 80 81 77
f 81 85 86
f 81 86 82
f 82 86 87
f 82 87 83
f 83 87 88
f 83 88 84
f 84 88 85
f 84 85 81
f 85 89 90
f 85 90 86
f 86 90 91
f 86 91 87
f 87 91 92
f 87 92 88
f 88 92 89
f 88 89 85
f 89 93 94
f 89 94 90
f 90 94 95
f 90 95 91
f 91 95 96
f 91 96 92
f 92 96 93
f 92 93 89
f 93 97 98
f 93 98 94
f 94 98 99
f 94 99 95
f 95 99 100
f 95 100 96
f 96 100 97
f 96 97 93
f 97 101 102
f 97 102 98
f 98 102 103
f 98 103 99
f 99 103 104
f 99 104 100
f 100 104 101
f 100 101 97
f 53 56 55
f 53 55 54
f 101 102 103
f 101 103 104
f 105 109 110
f 105 110 106
f 106 110 111
f 106 111 107
f 107 111 112
f 107 112 108
f 108 112 109
f 108 109 105
f 109 113 114
f 109 114 110
f 110 114 115
f 110 115 111
f 111 115 116
f 111 116 112
f 112 116 113
f 112 113 109
f 113 117 118
f 113 118 114
f 114 118 119
f 114 119 115
f 115 119 120
f 115 120 116
f 116 120 117
f 116 117 113
f 117 121 122
f 117 122 118
f 118 122 123
f 118 123 119
f 119 123 124
f 119 124 120
f 120 124 121
f 120 121 117
f 121 125 126
f 121 126 122
f 122 126 127
f 122 127 123
f 123 127 128
f 123 128 124
f 124 128 125
f 124 125 121
f 125 129 130
f 125 130 126
f 126 130 131
f 126 131 127
f 127 131 132
f 127 132 128
f 128 132 129
f 128 129 125
f 129 133 134
f 129 134 130
f 130 134 135
f 130 135 131
f 131 135 136
f 131 136 132
f 132 136 133
f 132 133 129
f 133 137 138
f 133 138 134
f 134 138 139
f 134 139 135
f 135 139 140
f 135 140 136
f 136 140 137
f 136 137 133
f 137 141 142
f 137 142 138
f 138 142 143
f 138 143 139
f 139 143 144
f 139 144 140
f 140 144 141
f 140 141 137
f 141 145 146
f 141 146 142
f 142 146 147
f 142 147 143
f 143 147 148
f 143 148 144
f 144 148 145
f 144 145 141
f 145 149 150
f 145 150 146
f 146 150 151
f 146 151 147
f 147 151 152
f 147 152 148
f 148 152 149
f 148 149 145
f 149 153 154
f 149 154 150
f 150 154 155
f 150 155 151
f 151 155 156
f 151 156 152
f 152 156 153
f 152 153 149
f 105 108 107
f 105 107 106
f 153 154 155
f 153 155 156
f 157 161 162
f 157 162 158
f 158 162 163
f 158 163 159
f 159 163 164
f 159 164 160
f 160 164 161
f 160 161 157
f 161 165 166
f 161 166 162
f 162 166 167
f 162 167 163
f 163 167 168
f 163 168 164
f 164 168 165
f 164 165 161
f 165 169 170
f 165 170 166
f 166 170 171
f 166 171 167
f 167 171 172
f 167 172 168
f 168 172 169
f 168 169 165
f 169 173 174
f 169 174 170
f 170 174 175
f 170 175 171
f 171 175 176
f 171 176 172
f 172 176 173
f 172 173 169
f 173 177 178
f 173 178 174
f 174 178 179
f 174 179 175
f 175 179 180
f 175 180 176
f 176 180 177
f 176 177 173
f 177 181 182
f 177 182 178
f 178 182 183
f 178 183 179
f 179 183 184
f 179 184 180
f 180 184 181
f 180 181 177
f 181 185 186
f 181 186 182
f 182 186 187
f 182 187 183
f 183 187 188
f 183 188 184
f 184 188 185
f 184 185 181
f 185 189 190
f 185 190 186
f 186 190 191
f 186 191 187
f 187 191 192
f 187 192 188
f 188 192 189
f 188 189 185
f 189 193 194
f 189 194 190
f 190 194 195
f 190 195 191
f 191 195 196
f 191 196 192
f 192 196 193
f 192 193 189
f 193 197 198
f 193 198 194
f 194 198 199
f 194 199 195
f 195 199 200
f 195 200 196
f 196 200 197
f 196 197 193
f 197 201 202
f 197 202 198
f 198 202 203
f 198 203 199
f 199 203 204
f 199 204 200
f 200 204 201
f 200 201 197
f 201 205 206
f 201 206 202
f 202 206 207
f 202 207 203
f 203 207 208
f 203 208 204
f 204 208 205
f 204 205 201
f 157 160 159
f 157 159 158
f 205 206 207
f 205 207 208
g pins
usemtl pins
f 209 210 220
f 209 220 219
f 210 211 221
f 210 221 220
f 211 212 222
f 211 222 221
f 212 213 223
f 212 223 222
f 213 214 224
f 213 224 223
f 214 215 225
f 214 225 224
f 215 216 226
f 215 226 225
f 216 217 227
f 216 227 226
f 217 218 228
f 217 228 227
f 218 209 219
f 218 219 228
f 229 210 209
f 230 219 220
f 229 211 210
f 230 220 221
f 229 212 211
f 230 221 222
f 229 213 212
f 230 222 223
f 229 214 213
f 230 223 224
f 229 215 214
f 230 224 225
f 229 216 215
f 230 225 226
f 229 217 216
f 230 226 227
f 229 218 217
f 230 227 228
f 229 209 218
f 230 228 219
f 231 232 244
f 231 244 243
f 232 233 245
f 232 245 244
f 233 234 246
f 233 246 245
f 234 235 247
f 234 247 246
f 235 236 248
f 235 248 247
f 236 237 249
f 236 249 248
f 237 238 250
f 237 250 249
f 238 239 251
f 238 251 250
f 239 240 252
f 239 252 251
f 240 241 253
f 240 253 252
f 241 242 254
f 241 254 253
f 242 231 243
f 242 243 254
f 255 232 231
f 256 243 244
f 255 233 232
f 256 244 245
f 255 234 233
f 256 245 246
f 255 235 234
f 256 246 247
f 255 236 235
f 256 247 248
f 255 237 236
f 256 248 249
f 255 238 237
f 256 249 250
f 255 239 238
f 256 250 251
f 255 240 239
f 256 251 252
f 255 241 240
f 256 252 253
f 255 242 241
f 256 253 254
f 255 231 242
f 256 254 243
f 257 258 264
f 257 264 263
f 258 259 265
f 258 265 264
f 259 260 266
f 259 266 265
f 260 261 267
f 260 267 266
f 261 262 268
f 261 268 267
f 262 257 263
f 262 263 268
f 269 258 257
f 270 263 264
f 269 259 258
f 270 264 265
f 269 260 259
f 270 265 266
f 269 261 260
f 270 266 267
f 269 262 261
f 270 267 268
f 269 257 262
f 270 268 263
f 271 272 282
f 271 282 281
f 272 273 283
f 272 283 282
f 273 274 284
f 273 284 283
f 274 275 285
f 274 285 284
f 275 276 286
f 275 286 285
f 276 277 287
f 276 287 286
f 277 278 288
f 277 288 287
f 278 279 289
f 278 289 288
f 279 280 290
f 279 290 289
f 280 271 281
f 280 281 290
f 291 272 271
f 292 281 282
f 291 273 272
f 292 282 283
f 291 274 273
f 292 283 284
f 291 275 274
f 292 284 285
f 291 276 275
f 292 285 286
f 291 277 276
f 292 286 287
f 291 278 277
f 292 287 288
f 291 279 278
f 292 288 289
f 291 280 279
f 292 289 290
f 291 271 280
f 292 290 281
f 293 294 306
f 293 306 305
f 294 295 307
f 294 307 306
f 295 296 308
f 295 308 307
f 296 297 309
f 296 309 308
f 297 298 310
f 297 310 309
f 298 299 311
f 298 311 310
f 299 300 312
f 299 312 311
f 300 301 313
f 300 313 312
f 301 302 314
f 301 314 313
f 302 303 315
f 302 315 314
f 303 304 316
f 303 316 315
f 304 293 305
f 304 305 316
f 317 294 293
f 318 305 306
f 317 295 294
f 318 306 307
f 317 296 295
f 318 307 308
f 317 297 296
f 318 308 309
f 317 298 297
f 318 309 310
f 317 299 298
f 318 310 311
f 317 300 299
f 318 311 312
f 317 301 300
f 318 312 313
f 317 302 301
f 318 313 314
f 317 303 302
f 318 314 315
f 317 304 303
f 318 315 316
f 317 293 304
f 318 316 305
f 319 320 326
f 319 326 325
f 320 321 327
f 320 327 326
f 321 322 328
f 321 328 327
f 322 323 329
f 322 329 328
f 323 324 330
f 323 330 329
f 324 319 325
f 324 325 330
f 331 320 319
f 332 325 326
f 331 321 320
f 332 326 327
f 331 322 321
f 332 327 328
f 331 323 322
f 332 328 329
f 331 324 323
f 332 329 330
f 331 319 324
f 332 330 325
f 333 334 344
f 333 344 343
f 334 335 345
f 334 345 344
f 335 336 346
f 335 346 345
f 336 337 347
f 336 347 346
f 337 338 348
f 337 348 347
f 338 339 349
f 338 349 348
f 339 340 350
f 339 350 349
f 340 341 351
f 340 351 350
f 341 342 352
f 341 352 351
f 342 333 343
f 342 343 352
f 353 334 333
f 354 343 344
f 353 335 334
f 354 344 345
f 353 336 335
f 354 345 346
f 353 337 336
f 354 346 347
f 353 338 337
f 354 347 348
f 353 339 338
f 354 348 349
f 353 340 339
f 354 349 350
f 353 341 340
f 354 350 351
f 353 342 341
f 354 351 352
f 353 333 342
f 354 352 343
f 355 356 368
f 355 368 367
f 356 357 369
f 356 369 368
f 357 358 370
f 357 370 369
f 358 359 371
f 358 371 370
f 359 360 372
f 359 372 371
f 360 361 373
f 360 373 372
f 361 362 374
f 361 374 373
f 362 363 375
f 362 375 374
f 363 364 376
f 363 376 375
f 364 365 377
f 364 377 376
f 365 366 378
f 365 378 377
f 366 355 367
f 366 367 378
f 379 356 355
f 380 367 368
f 379 357 356
f 380 368 369
f 379 358 357
f 380 369 370
f 379 359 358
f 380 370 371
f 379 360 359
f 380 371 372
f 379 361 360
f 380 372 373
f 379 362 361
f 380 373 374
f 379 363 362
f 380 374 375
f 379 364 363
f 380 375 376
f 379 365 364
f 380 376 377
f 379 366 365
f 380 377 378
f 379 355 366
f 380 378 367
f 381 382 388
f 381 388 387
f 382 383 389
f 382 389 388
f 383 384 390
f 383 390 389
f 384 385 391
f 384 391 390
f 385 386 392
f 385 392 391
f 386 381 387
f 386 387 392
f 393 382 381
f 394 387 388
f 393 383 382
f 394 388 389
f 393 384 383
f 394 389 390
f 393 385 384
f 394 390 391
f 393 386 385
f 394 391 392
f 393 381 386
f 394 392 387
f 395 396 406
f 395 406 405
f 396 397 407
f 396 407 406
f 397 398 408
f 397 408 407
f 398 399 409
f 398 409 408
f 399 400 410
f 399 410 409
f 400 401 411
f 400 411 410
f 401 402 412
f 401 412 411
f 402 403 413
f 402 413 412
f 403 404 414
f 403 414 413
f 404 395 405
f 404 405 414
f 415 396 395
f 416 405 406
f 415 397 396
f 416 406 407
f 415 398 397
f 416 407 408
f 415 399 398
f 416 408 409
f 415 400 399
f 416 409 410
f 415 401 400
f 416 410 411
f 415 402 401
f 416 411 412
f 415 403 402
f 416 412 413
f 415 404 403
f 416 413 414
f 415 395 404
f 416 414 405
f 417 418 430
f 417 430 429
f 418 419 431
f 418 431 430
f 419 420 432
f 419 432 431
f 420 421 433
f 420 433 432
f 421 422 434
f 421 434 433
f 422 423 435
f 422 435 434
f 423 424 436
f 423 436 435
f 424 425 437
f 424 437 436
f 425 426 438
f 425 438 437
f 426 427 439
f 426 439 438
f 427 428 440
f 427 440 439
f 428 417 429
f 428 429 440
f 441 418 417
f 442 429 430
f 441 419 418
f 442 430 431
f 441 420 419
f 442 431 432
f 441 421 420
f 442 432 433
f 441 422 421
f 442 433 434
f 441 423 422
f 442 434 435
f 441 424 423
f 442 435 436
f 441 425 424
f 442 436 437
f 441 426 425
f 442 437 438
f 441 427 426
f 442 438 439
f 441 428 427
f 442 439 440
f 441 417 428
f 442 440 429
f 443 444 450
f 443 450 449
f 444 445 451
f 444 451 450
f 445 446 452
f 445 452 451
f 446 447 453
f 446 453 452
f 447 448 454
f 447 454 453
f 448 443 449
f 448 449 454
f 455 444 443
f 456 449 450
f 455 445 444
f 456 450 451
f 455 446 445
f 456 451 452
f 455 447 446
f 456 452 453
f 455 448 447
f 456 453 454
f 455 443 448
f 456 454 449
